<?xml version="1.0" encoding="UTF-8" standalone="no"?>
<!-- Created by Flowgorithm 2.30.3 (http://flowgorithm.org) -->

<svg xmlns:svg="http://www.w3.org/2000/svg" xmlns="http://www.w3.org/2000/svg" version="1.1" width="5525" height="7075">
	<g>
		<polyline fill="none" stroke="#404040" stroke-width="6" stroke-dasharray="none" points="4725,175 4725,236"/>
		<polygon fill="#404040" stroke="none" points="4725,250 4738,225 4711,225"/>
		<polyline fill="none" stroke="#404040" stroke-width="6" stroke-dasharray="none" points="4725,6875 4725,6936"/>
		<polygon fill="#404040" stroke="none" points="4725,6950 4738,6925 4711,6925"/>
		<g>
			<path fill="#F0D0FF" stroke="#9070A0" stroke-width="3" stroke-dasharray="none" d="M 4375,25 A 75,75 0 0,0 4375,175 L 5075,175 A 75,75 0 0,0 5075,25 Z"/>
			<text x="4725" y="40" fill="#000000" font-family="Arial" font-size="32pt" text-anchor="middle" direction="ltr">
				<tspan x="4725" dy="50" unicode-bidi="embed">calculateBestMove</tspan>
				<tspan x="4725" dy="50" unicode-bidi="embed">(String Tablica board, String player)</tspan>
			</text>
		</g>
		<g>
			<path fill="#F0D0FF" stroke="#9070A0" stroke-width="3" stroke-dasharray="none" d="M 4525,6950 A 50,50 0 0,0 4525,7050 L 4925,7050 A 50,50 0 0,0 4925,6950 Z"/>
			<text x="4725" y="6965" fill="#000000" font-family="Arial" font-size="32pt" text-anchor="middle" direction="ltr">
				<tspan x="4725" dy="50" unicode-bidi="embed">Zwraca String point</tspan>
			</text>
		</g>
		<g>
			<polyline fill="none" stroke="#404040" stroke-width="6" stroke-dasharray="none" points="4725,375 4725,436"/>
			<polygon fill="#404040" stroke="none" points="4725,450 4738,425 4711,425"/>
			<polyline fill="none" stroke="#404040" stroke-width="6" stroke-dasharray="none" points="4725,1025 4725,1086"/>
			<polygon fill="#404040" stroke="none" points="4725,1100 4738,1075 4711,1075"/>
			<polyline fill="none" stroke="#404040" stroke-width="6" stroke-dasharray="none" points="4725,1225 4725,1286"/>
			<polygon fill="#404040" stroke="none" points="4725,1300 4738,1275 4711,1275"/>
			<polyline fill="none" stroke="#404040" stroke-width="6" stroke-dasharray="none" points="4725,1425 4725,1550"/>
			<polyline fill="none" stroke="#404040" stroke-width="6" stroke-dasharray="none" points="4725,1550 4725,1661"/>
			<polygon fill="#404040" stroke="none" points="4725,1675 4738,1650 4711,1650"/>
			<polyline fill="none" stroke="#404040" stroke-width="6" stroke-dasharray="none" points="4725,1775 4725,1836"/>
			<polygon fill="#404040" stroke="none" points="4725,1850 4738,1825 4711,1825"/>
			<g>
				<path fill="#FFFFD0" stroke="#A0A070" stroke-width="3" stroke-dasharray="none" d="M 4525,250 L 4525,375 L 4925,375 L 4925,250 Z"/>
				<polyline fill="none" stroke="#A0A070" stroke-width="3" stroke-dasharray="none" points="4525,275 4925,275"/>
				<polyline fill="none" stroke="#A0A070" stroke-width="3" stroke-dasharray="none" points="4550,250 4550,375"/>
				<text x="4737" y="290" fill="#000000" font-family="Arial" font-size="32pt" text-anchor="middle" direction="ltr">
					<tspan x="4737" dy="50" unicode-bidi="embed">String Opponent</tspan>
				</text>
			</g>
			<g>
				<polyline fill="none" stroke="#404040" stroke-width="6" stroke-dasharray="none" points="4975,600 5175,600 5175,786"/>
				<polygon fill="#404040" stroke="none" points="5175,800 5188,775 5161,775"/>
				<polyline fill="none" stroke="#404040" stroke-width="6" stroke-dasharray="none" points="5175,900 5175,1000 4763,1000"/>
				<polygon fill="#404040" stroke="none" points="4750,1000 4774,1013 4774,986"/>
				<polyline fill="none" stroke="#404040" stroke-width="6" stroke-dasharray="none" points="4475,600 4300,600 4300,786"/>
				<polygon fill="#404040" stroke="none" points="4300,800 4313,775 4286,775"/>
				<polyline fill="none" stroke="#404040" stroke-width="6" stroke-dasharray="none" points="4300,900 4300,1000 4686,1000"/>
				<polygon fill="#404040" stroke="none" points="4700,1000 4675,986 4675,1013"/>
				<g>
					<path fill="#FFD0D0" stroke="#A07070" stroke-width="3" stroke-dasharray="none" d="M 4725,450 L 4450,600 L 4725,750 L 5000,600 Z"/>
					<text x="4725" y="565" fill="#000000" font-family="Arial" font-size="32pt" text-anchor="middle" direction="ltr">
						<tspan x="4725" dy="50" unicode-bidi="embed">player == PLAYER1</tspan>
					</text>
				</g>
				<g>
					<path fill="#FFFFD0" stroke="#A0A070" stroke-width="3" stroke-dasharray="none" d="M 4925,800 L 4925,900 L 5425,900 L 5425,800 Z"/>
					<text x="5175" y="815" fill="#000000" font-family="Arial" font-size="32pt" text-anchor="middle" direction="ltr">
						<tspan x="5175" dy="50" unicode-bidi="embed">Opponent = PLAYER2</tspan>
					</text>
				</g>
				<g>
					<path fill="#FFFFD0" stroke="#A0A070" stroke-width="3" stroke-dasharray="none" d="M 4050,800 L 4050,900 L 4550,900 L 4550,800 Z"/>
					<text x="4300" y="815" fill="#000000" font-family="Arial" font-size="32pt" text-anchor="middle" direction="ltr">
						<tspan x="4300" dy="50" unicode-bidi="embed">Opponent = PLAYER1</tspan>
					</text>
				</g>
				<ellipse cx="4725" cy="1000" rx="25" ry="25" fill="#FFD0D0" stroke="#A07070" stroke-width="3"/>
				<text x="5100" y="515" fill="#000000" font-family="Arial" font-size="32pt" text-anchor="middle" direction="ltr">
					<tspan x="5100" dy="50" unicode-bidi="embed">Prawda</tspan>
				</text>
				<text x="4362" y="515" fill="#000000" font-family="Arial" font-size="32pt" text-anchor="middle" direction="ltr">
					<tspan x="4362" dy="50" unicode-bidi="embed">Fa&#322;sz</tspan>
				</text>
			</g>
			<g>
				<path fill="#FFFFD0" stroke="#A0A070" stroke-width="3" stroke-dasharray="none" d="M 4575,1100 L 4575,1225 L 4875,1225 L 4875,1100 Z"/>
				<polyline fill="none" stroke="#A0A070" stroke-width="3" stroke-dasharray="none" points="4575,1125 4875,1125"/>
				<polyline fill="none" stroke="#A0A070" stroke-width="3" stroke-dasharray="none" points="4600,1100 4600,1225"/>
				<text x="4737" y="1140" fill="#000000" font-family="Arial" font-size="32pt" text-anchor="middle" direction="ltr">
					<tspan x="4737" dy="50" unicode-bidi="embed">String point</tspan>
				</text>
			</g>
			<g>
				<path fill="#FFFFD0" stroke="#A0A070" stroke-width="3" stroke-dasharray="none" d="M 4575,1300 L 4575,1425 L 4875,1425 L 4875,1300 Z"/>
				<polyline fill="none" stroke="#A0A070" stroke-width="3" stroke-dasharray="none" points="4575,1325 4875,1325"/>
				<polyline fill="none" stroke="#A0A070" stroke-width="3" stroke-dasharray="none" points="4600,1300 4600,1425"/>
				<text x="4737" y="1340" fill="#000000" font-family="Arial" font-size="32pt" text-anchor="middle" direction="ltr">
					<tspan x="4737" dy="50" unicode-bidi="embed">Integer bM</tspan>
				</text>
			</g>
			<g>
				<polyline fill="none" stroke="#404040" stroke-width="6" stroke-dasharray="6,12" points="4725,1550 4850,1550"/>
				<g>
					<path fill="#FFFFFF" stroke="#606060" stroke-width="3" stroke-dasharray="6,6" d="M 4850,1500 L 4850,1600 L 5500,1600 L 5500,1500 Z"/>
					<text x="5175" y="1515" fill="#606060" font-family="Arial" font-size="32pt" text-anchor="middle" direction="ltr">
						<tspan x="5175" dy="50" unicode-bidi="embed">Szukamy ruchu wygrywaj&#261;cego</tspan>
					</text>
				</g>
			</g>
			<g>
				<path fill="#FFFFD0" stroke="#A0A070" stroke-width="3" stroke-dasharray="none" d="M 4425,1675 L 4425,1775 L 5025,1775 L 5025,1675 Z"/>
				<text x="4725" y="1690" fill="#000000" font-family="Arial" font-size="32pt" text-anchor="middle" direction="ltr">
					<tspan x="4725" dy="50" unicode-bidi="embed">bM = findWin(board, player)</tspan>
				</text>
			</g>
			<g>
				<polyline fill="none" stroke="#404040" stroke-width="6" stroke-dasharray="none" points="5100,2050 5300,2050 5300,6850 4763,6850"/>
				<polygon fill="#404040" stroke="none" points="4750,6850 4774,6863 4774,6836"/>
				<polyline fill="none" stroke="#404040" stroke-width="6" stroke-dasharray="none" points="4350,2050 3950,2050 3950,2350"/>
				<polyline fill="none" stroke="#404040" stroke-width="6" stroke-dasharray="none" points="3950,6750 3950,6850 4686,6850"/>
				<polygon fill="#404040" stroke="none" points="4700,6850 4675,6836 4675,6863"/>
				<g>
					<path fill="#FFD0D0" stroke="#A07070" stroke-width="3" stroke-dasharray="none" d="M 4725,1850 L 4325,2050 L 4725,2250 L 5125,2050 Z"/>
					<text x="4725" y="1990" fill="#000000" font-family="Arial" font-size="32pt" text-anchor="middle" direction="ltr">
						<tspan x="4725" dy="50" unicode-bidi="embed">bM != NULL &amp;&amp; bM &amp;&amp; bM &lt;</tspan>
						<tspan x="4725" dy="50" unicode-bidi="embed"> BoardSize &amp;&amp; bM &gt;= 0</tspan>
					</text>
				</g>
				<g>
				</g>
				<g>
					<polyline fill="none" stroke="#404040" stroke-width="6" stroke-dasharray="none" points="3950,2350 3950,2461"/>
					<polygon fill="#404040" stroke="none" points="3950,2475 3963,2450 3936,2450"/>
					<polyline fill="none" stroke="#404040" stroke-width="6" stroke-dasharray="none" points="3950,2625 3950,2686"/>
					<polygon fill="#404040" stroke="none" points="3950,2700 3963,2675 3936,2675"/>
					<g>
						<polyline fill="none" stroke="#404040" stroke-width="6" stroke-dasharray="6,12" points="3950,2350 4075,2350"/>
						<g>
							<path fill="#FFFFFF" stroke="#606060" stroke-width="3" stroke-dasharray="6,6" d="M 4075,2300 L 4075,2400 L 4675,2400 L 4675,2300 Z"/>
							<text x="4375" y="2315" fill="#606060" font-family="Arial" font-size="32pt" text-anchor="middle" direction="ltr">
								<tspan x="4375" dy="50" unicode-bidi="embed">Szukamy ruchu blokuj&#261;cego</tspan>
							</text>
						</g>
					</g>
					<g>
						<path fill="#FFFFD0" stroke="#A0A070" stroke-width="3" stroke-dasharray="none" d="M 3725,2475 L 3725,2625 L 4175,2625 L 4175,2475 Z"/>
						<text x="3950" y="2490" fill="#000000" font-family="Arial" font-size="32pt" text-anchor="middle" direction="ltr">
							<tspan x="3950" dy="50" unicode-bidi="embed">bM = findWin(board,</tspan>
							<tspan x="3950" dy="50" unicode-bidi="embed"> Opponent)</tspan>
						</text>
					</g>
					<g>
						<polyline fill="none" stroke="#404040" stroke-width="6" stroke-dasharray="none" points="4325,2900 4525,2900 4525,6725 3988,6725"/>
						<polygon fill="#404040" stroke="none" points="3975,6725 3999,6738 3999,6711"/>
						<polyline fill="none" stroke="#404040" stroke-width="6" stroke-dasharray="none" points="3575,2900 3225,2900 3225,3200"/>
						<polyline fill="none" stroke="#404040" stroke-width="6" stroke-dasharray="none" points="3225,6625 3225,6725 3911,6725"/>
						<polygon fill="#404040" stroke="none" points="3925,6725 3900,6711 3900,6738"/>
						<g>
							<path fill="#FFD0D0" stroke="#A07070" stroke-width="3" stroke-dasharray="none" d="M 3950,2700 L 3550,2900 L 3950,3100 L 4350,2900 Z"/>
							<text x="3950" y="2840" fill="#000000" font-family="Arial" font-size="32pt" text-anchor="middle" direction="ltr">
								<tspan x="3950" dy="50" unicode-bidi="embed">bM != NULL &amp;&amp; bM &amp;&amp; bM &lt;</tspan>
								<tspan x="3950" dy="50" unicode-bidi="embed"> BoardSize &amp;&amp; bM &gt;= 0</tspan>
							</text>
						</g>
						<g>
						</g>
						<g>
							<polyline fill="none" stroke="#404040" stroke-width="6" stroke-dasharray="none" points="3225,3200 3225,3311"/>
							<polygon fill="#404040" stroke="none" points="3225,3325 3238,3300 3211,3300"/>
							<polyline fill="none" stroke="#404040" stroke-width="6" stroke-dasharray="none" points="3225,3425 3225,3486"/>
							<polygon fill="#404040" stroke="none" points="3225,3500 3238,3475 3211,3475"/>
							<g>
								<polyline fill="none" stroke="#404040" stroke-width="6" stroke-dasharray="6,12" points="3225,3200 3350,3200"/>
								<g>
									<path fill="#FFFFFF" stroke="#606060" stroke-width="3" stroke-dasharray="6,6" d="M 3350,3150 L 3350,3250 L 3900,3250 L 3900,3150 Z"/>
									<text x="3625" y="3165" fill="#606060" font-family="Arial" font-size="32pt" text-anchor="middle" direction="ltr">
										<tspan x="3625" dy="50" unicode-bidi="embed">Szukanie dobrego ruchu</tspan>
									</text>
								</g>
							</g>
							<g>
								<path fill="#FFFFD0" stroke="#A0A070" stroke-width="3" stroke-dasharray="none" d="M 2925,3325 L 2925,3425 L 3525,3425 L 3525,3325 Z"/>
								<text x="3225" y="3340" fill="#000000" font-family="Arial" font-size="32pt" text-anchor="middle" direction="ltr">
									<tspan x="3225" dy="50" unicode-bidi="embed">bM = findMov(board, player)</tspan>
								</text>
							</g>
							<g>
								<polyline fill="none" stroke="#404040" stroke-width="6" stroke-dasharray="none" points="3600,3700 3800,3700 3800,6600 3263,6600"/>
								<polygon fill="#404040" stroke="none" points="3250,6600 3274,6613 3274,6586"/>
								<polyline fill="none" stroke="#404040" stroke-width="6" stroke-dasharray="none" points="2850,3700 2350,3700 2350,4025"/>
								<polyline fill="none" stroke="#404040" stroke-width="6" stroke-dasharray="none" points="2350,6500 2350,6600 3186,6600"/>
								<polygon fill="#404040" stroke="none" points="3200,6600 3175,6586 3175,6613"/>
								<g>
									<path fill="#FFD0D0" stroke="#A07070" stroke-width="3" stroke-dasharray="none" d="M 3225,3500 L 2825,3700 L 3225,3900 L 3625,3700 Z"/>
									<text x="3225" y="3640" fill="#000000" font-family="Arial" font-size="32pt" text-anchor="middle" direction="ltr">
										<tspan x="3225" dy="50" unicode-bidi="embed">bM != NULL &amp;&amp; bM &amp;&amp; bM &lt;</tspan>
										<tspan x="3225" dy="50" unicode-bidi="embed"> BoardSize &amp;&amp; bM &gt;= 0</tspan>
									</text>
								</g>
								<g>
								</g>
								<g>
									<polyline fill="none" stroke="#404040" stroke-width="6" stroke-dasharray="none" points="2350,4025 2350,4161"/>
									<polygon fill="#404040" stroke="none" points="2350,4175 2363,4150 2336,4150"/>
									<polyline fill="none" stroke="#404040" stroke-width="6" stroke-dasharray="none" points="2350,4325 2350,4386"/>
									<polygon fill="#404040" stroke="none" points="2350,4400 2363,4375 2336,4375"/>
									<g>
										<polyline fill="none" stroke="#404040" stroke-width="6" stroke-dasharray="6,12" points="2350,4025 2475,4025"/>
										<g>
											<path fill="#FFFFFF" stroke="#606060" stroke-width="3" stroke-dasharray="6,6" d="M 2475,3950 L 2475,4100 L 3175,4100 L 3175,3950 Z"/>
											<text x="2825" y="3965" fill="#606060" font-family="Arial" font-size="32pt" text-anchor="middle" direction="ltr">
												<tspan x="2825" dy="50" unicode-bidi="embed">Szukanie ruchu negatywnego dla</tspan>
												<tspan x="2825" dy="50" unicode-bidi="embed"> przeciwnika</tspan>
											</text>
										</g>
									</g>
									<g>
										<path fill="#FFFFD0" stroke="#A0A070" stroke-width="3" stroke-dasharray="none" d="M 2125,4175 L 2125,4325 L 2575,4325 L 2575,4175 Z"/>
										<text x="2350" y="4190" fill="#000000" font-family="Arial" font-size="32pt" text-anchor="middle" direction="ltr">
											<tspan x="2350" dy="50" unicode-bidi="embed">bM = findMov(board,</tspan>
											<tspan x="2350" dy="50" unicode-bidi="embed"> Opponent)</tspan>
										</text>
									</g>
									<g>
										<polyline fill="none" stroke="#404040" stroke-width="6" stroke-dasharray="none" points="2725,4600 2925,4600 2925,6475 2388,6475"/>
										<polygon fill="#404040" stroke="none" points="2375,6475 2399,6488 2399,6461"/>
										<polyline fill="none" stroke="#404040" stroke-width="6" stroke-dasharray="none" points="1975,4600 300,4600 300,4900"/>
										<polyline fill="none" stroke="#404040" stroke-width="6" stroke-dasharray="none" points="300,5150 300,6475 2311,6475"/>
										<polygon fill="#404040" stroke="none" points="2325,6475 2300,6461 2300,6488"/>
										<g>
											<path fill="#FFD0D0" stroke="#A07070" stroke-width="3" stroke-dasharray="none" d="M 2350,4400 L 1950,4600 L 2350,4800 L 2750,4600 Z"/>
											<text x="2350" y="4540" fill="#000000" font-family="Arial" font-size="32pt" text-anchor="middle" direction="ltr">
												<tspan x="2350" dy="50" unicode-bidi="embed">bM != NULL &amp;&amp; bM &amp;&amp; bM &lt;</tspan>
												<tspan x="2350" dy="50" unicode-bidi="embed"> BoardSize &amp;&amp; bM &gt;= 0</tspan>
											</text>
										</g>
										<g>
										</g>
										<g>
											<polyline fill="none" stroke="#404040" stroke-width="6" stroke-dasharray="none" points="300,4900 300,5036"/>
											<polygon fill="#404040" stroke="none" points="300,5050 313,5025 286,5025"/>
											<g>
												<polyline fill="none" stroke="#404040" stroke-width="6" stroke-dasharray="6,12" points="300,4900 425,4900"/>
												<g>
													<path fill="#FFFFFF" stroke="#606060" stroke-width="3" stroke-dasharray="6,6" d="M 425,4850 L 425,4950 L 1025,4950 L 1025,4850 Z"/>
													<text x="725" y="4865" fill="#606060" font-family="Arial" font-size="32pt" text-anchor="middle" direction="ltr">
														<tspan x="725" dy="50" unicode-bidi="embed">Szukanie dowolnego ruchu</tspan>
													</text>
												</g>
											</g>
											<g>
												<polyline fill="none" stroke="#404040" stroke-width="6" stroke-dasharray="none" points="575,5100 800,5100 800,5211"/>
												<polygon fill="#404040" stroke="none" points="800,5225 813,5200 786,5200"/>
												<polyline fill="none" stroke="#404040" stroke-width="6" stroke-dasharray="none" points="800,5325 800,6375 350,6375 350,5163"/>
												<polygon fill="#404040" stroke="none" points="350,5150 336,5174 363,5174"/>
												<g>
													<polyline fill="none" stroke="#404040" stroke-width="6" stroke-dasharray="none" points="1075,5275 1500,5275 1500,5361"/>
													<polygon fill="#404040" stroke="none" points="1500,5375 1513,5350 1486,5350"/>
													<polyline fill="none" stroke="#404040" stroke-width="6" stroke-dasharray="none" points="1500,6225 1500,6300 850,6300 850,5338"/>
													<polygon fill="#404040" stroke="none" points="850,5325 836,5349 863,5349"/>
													<g>
														<polyline fill="none" stroke="#404040" stroke-width="6" stroke-dasharray="none" points="1875,5575 2075,5575 2075,5811"/>
														<polygon fill="#404040" stroke="none" points="2075,5825 2088,5800 2061,5800"/>
														<polyline fill="none" stroke="#404040" stroke-width="6" stroke-dasharray="none" points="2075,6100 2075,6200 1538,6200"/>
														<polygon fill="#404040" stroke="none" points="1525,6200 1549,6213 1549,6186"/>
														<polyline fill="none" stroke="#404040" stroke-width="6" stroke-dasharray="none" points="1125,5575 950,5575 950,6200 1461,6200"/>
														<polygon fill="#404040" stroke="none" points="1475,6200 1450,6186 1450,6213"/>
														<g>
															<path fill="#FFD0D0" stroke="#A07070" stroke-width="3" stroke-dasharray="none" d="M 1500,5375 L 1100,5575 L 1500,5775 L 1900,5575 Z"/>
															<text x="1500" y="5515" fill="#000000" font-family="Arial" font-size="32pt" text-anchor="middle" direction="ltr">
																<tspan x="1500" dy="50" unicode-bidi="embed">board[i * BoardSize + j] ==</tspan>
																<tspan x="1500" dy="50" unicode-bidi="embed"> EMPTY</tspan>
															</text>
														</g>
														<g>
															<polyline fill="none" stroke="#404040" stroke-width="6" stroke-dasharray="none" points="2075,5925 2075,5986"/>
															<polygon fill="#404040" stroke="none" points="2075,6000 2088,5975 2061,5975"/>
															<g>
																<path fill="#C04040" stroke="#602020" stroke-width="3" stroke-dasharray="none" d="M 1850,5825 L 1850,5925 L 2300,5925 L 2300,5825 Z"/>
																<text x="2075" y="5840" fill="#FFFFFF" font-family="Arial" font-size="32pt" text-anchor="middle" direction="ltr">
																	<tspan x="2075" dy="50" unicode-bidi="embed">point = new point(j, i)</tspan>
																</text>
															</g>
															<g>
																<path fill="#F0D0FF" stroke="#9070A0" stroke-width="3" stroke-dasharray="none" d="M 1925,6000 L 1925,6100 L 2225,6100 L 2225,6000 Z"/>
																<polyline fill="none" stroke="#9070A0" stroke-width="3" stroke-dasharray="none" points="1950,6000 1950,6100"/>
																<polyline fill="none" stroke="#9070A0" stroke-width="3" stroke-dasharray="none" points="2200,6000 2200,6100"/>
																<text x="2075" y="6015" fill="#000000" font-family="Arial" font-size="32pt" text-anchor="middle" direction="ltr">
																	<tspan x="2075" dy="50" unicode-bidi="embed">break</tspan>
																</text>
															</g>
														</g>
														<g>
														</g>
														<ellipse cx="1500" cy="6200" rx="25" ry="25" fill="#FFD0D0" stroke="#A07070" stroke-width="3"/>
														<text x="2000" y="5490" fill="#000000" font-family="Arial" font-size="32pt" text-anchor="middle" direction="ltr">
															<tspan x="2000" dy="50" unicode-bidi="embed">Prawda</tspan>
														</text>
														<text x="1012" y="5490" fill="#000000" font-family="Arial" font-size="32pt" text-anchor="middle" direction="ltr">
															<tspan x="1012" dy="50" unicode-bidi="embed">Fa&#322;sz</tspan>
														</text>
													</g>
													<g>
														<path fill="#FFE0A0" stroke="#A08040" stroke-width="3" stroke-dasharray="none" d="M 575,5225 L 525,5275 L 575,5325 L 1025,5325 L 1075,5275 L 1025,5225 Z"/>
														<text x="800" y="5240" fill="#000000" font-family="Arial" font-size="32pt" text-anchor="middle" direction="ltr">
															<tspan x="800" dy="50" unicode-bidi="embed">j = 0 do BoardSize</tspan>
														</text>
													</g>
													<text x="1200" y="5190" fill="#000000" font-family="Arial" font-size="32pt" text-anchor="middle" direction="ltr">
														<tspan x="1200" dy="50" unicode-bidi="embed">Nast&#281;pny</tspan>
													</text>
													<text x="662" y="5340" fill="#000000" font-family="Arial" font-size="32pt" text-anchor="middle" direction="ltr">
														<tspan x="662" dy="50" unicode-bidi="embed">Wykonano</tspan>
													</text>
												</g>
												<g>
													<path fill="#FFE0A0" stroke="#A08040" stroke-width="3" stroke-dasharray="none" d="M 75,5050 L 25,5100 L 75,5150 L 525,5150 L 575,5100 L 525,5050 Z"/>
													<text x="300" y="5065" fill="#000000" font-family="Arial" font-size="32pt" text-anchor="middle" direction="ltr">
														<tspan x="300" dy="50" unicode-bidi="embed">i = 0 do BoardSize</tspan>
													</text>
												</g>
												<text x="700" y="5015" fill="#000000" font-family="Arial" font-size="32pt" text-anchor="middle" direction="ltr">
													<tspan x="700" dy="50" unicode-bidi="embed">Nast&#281;pny</tspan>
												</text>
												<text x="162" y="5165" fill="#000000" font-family="Arial" font-size="32pt" text-anchor="middle" direction="ltr">
													<tspan x="162" dy="50" unicode-bidi="embed">Wykonano</tspan>
												</text>
											</g>
										</g>
										<ellipse cx="2350" cy="6475" rx="25" ry="25" fill="#FFD0D0" stroke="#A07070" stroke-width="3"/>
										<text x="2850" y="4515" fill="#000000" font-family="Arial" font-size="32pt" text-anchor="middle" direction="ltr">
											<tspan x="2850" dy="50" unicode-bidi="embed">Prawda</tspan>
										</text>
										<text x="1862" y="4515" fill="#000000" font-family="Arial" font-size="32pt" text-anchor="middle" direction="ltr">
											<tspan x="1862" dy="50" unicode-bidi="embed">Fa&#322;sz</tspan>
										</text>
									</g>
								</g>
								<ellipse cx="3225" cy="6600" rx="25" ry="25" fill="#FFD0D0" stroke="#A07070" stroke-width="3"/>
								<text x="3725" y="3615" fill="#000000" font-family="Arial" font-size="32pt" text-anchor="middle" direction="ltr">
									<tspan x="3725" dy="50" unicode-bidi="embed">Prawda</tspan>
								</text>
								<text x="2737" y="3615" fill="#000000" font-family="Arial" font-size="32pt" text-anchor="middle" direction="ltr">
									<tspan x="2737" dy="50" unicode-bidi="embed">Fa&#322;sz</tspan>
								</text>
							</g>
						</g>
						<ellipse cx="3950" cy="6725" rx="25" ry="25" fill="#FFD0D0" stroke="#A07070" stroke-width="3"/>
						<text x="4450" y="2815" fill="#000000" font-family="Arial" font-size="32pt" text-anchor="middle" direction="ltr">
							<tspan x="4450" dy="50" unicode-bidi="embed">Prawda</tspan>
						</text>
						<text x="3462" y="2815" fill="#000000" font-family="Arial" font-size="32pt" text-anchor="middle" direction="ltr">
							<tspan x="3462" dy="50" unicode-bidi="embed">Fa&#322;sz</tspan>
						</text>
					</g>
				</g>
				<ellipse cx="4725" cy="6850" rx="25" ry="25" fill="#FFD0D0" stroke="#A07070" stroke-width="3"/>
				<text x="5225" y="1965" fill="#000000" font-family="Arial" font-size="32pt" text-anchor="middle" direction="ltr">
					<tspan x="5225" dy="50" unicode-bidi="embed">Prawda</tspan>
				</text>
				<text x="4237" y="1965" fill="#000000" font-family="Arial" font-size="32pt" text-anchor="middle" direction="ltr">
					<tspan x="4237" dy="50" unicode-bidi="embed">Fa&#322;sz</tspan>
				</text>
			</g>
		</g>
	</g>
</svg>
