<?xml version="1.0" encoding="UTF-8" standalone="no"?>
<!-- Created by Flowgorithm 2.30.3 (http://flowgorithm.org) -->

<svg xmlns:svg="http://www.w3.org/2000/svg" xmlns="http://www.w3.org/2000/svg" version="1.1" width="1250" height="5250">
	<g>
		<polyline fill="none" stroke="#404040" stroke-width="6" stroke-dasharray="none" points="300,125 300,186"/>
		<polygon fill="#404040" stroke="none" points="300,200 313,175 286,175"/>
		<polyline fill="none" stroke="#404040" stroke-width="6" stroke-dasharray="none" points="300,4825 300,5111"/>
		<polygon fill="#404040" stroke="none" points="300,5125 313,5100 286,5100"/>
		<g>
			<path fill="#F0D0FF" stroke="#9070A0" stroke-width="3" stroke-dasharray="none" d="M 200,25 A 50,50 0 0,0 200,125 L 400,125 A 50,50 0 0,0 400,25 Z"/>
			<text x="300" y="40" fill="#000000" font-family="Arial" font-size="32pt" text-anchor="middle" direction="ltr">
				<tspan x="300" dy="50" unicode-bidi="embed">Main</tspan>
			</text>
		</g>
		<g>
			<path fill="#F0D0FF" stroke="#9070A0" stroke-width="3" stroke-dasharray="none" d="M 200,5125 A 50,50 0 0,0 200,5225 L 400,5225 A 50,50 0 0,0 400,5125 Z"/>
			<text x="300" y="5140" fill="#000000" font-family="Arial" font-size="32pt" text-anchor="middle" direction="ltr">
				<tspan x="300" dy="50" unicode-bidi="embed">Koniec</tspan>
			</text>
		</g>
		<g>
			<polyline fill="none" stroke="#404040" stroke-width="6" stroke-dasharray="none" points="300,325 300,386"/>
			<polygon fill="#404040" stroke="none" points="300,400 313,375 286,375"/>
			<polyline fill="none" stroke="#404040" stroke-width="6" stroke-dasharray="none" points="300,500 300,561"/>
			<polygon fill="#404040" stroke="none" points="300,575 313,550 286,550"/>
			<polyline fill="none" stroke="#404040" stroke-width="6" stroke-dasharray="none" points="300,700 300,761"/>
			<polygon fill="#404040" stroke="none" points="300,775 313,750 286,750"/>
			<polyline fill="none" stroke="#404040" stroke-width="6" stroke-dasharray="none" points="300,875 300,1000"/>
			<polyline fill="none" stroke="#404040" stroke-width="6" stroke-dasharray="none" points="300,1000 300,1175"/>
			<polyline fill="none" stroke="#404040" stroke-width="6" stroke-dasharray="none" points="300,1175 300,1286"/>
			<polygon fill="#404040" stroke="none" points="300,1300 313,1275 286,1275"/>
			<polyline fill="none" stroke="#404040" stroke-width="6" stroke-dasharray="none" points="300,1425 300,1486"/>
			<polygon fill="#404040" stroke="none" points="300,1500 313,1475 286,1475"/>
			<polyline fill="none" stroke="#404040" stroke-width="6" stroke-dasharray="none" points="300,1625 300,1686"/>
			<polygon fill="#404040" stroke="none" points="300,1700 313,1675 286,1675"/>
			<polyline fill="none" stroke="#404040" stroke-width="6" stroke-dasharray="none" points="300,1825 300,1886"/>
			<polygon fill="#404040" stroke="none" points="300,1900 313,1875 286,1875"/>
			<polyline fill="none" stroke="#404040" stroke-width="6" stroke-dasharray="none" points="300,2000 300,2061"/>
			<polygon fill="#404040" stroke="none" points="300,2075 313,2050 286,2050"/>
			<polyline fill="none" stroke="#404040" stroke-width="6" stroke-dasharray="none" points="300,2175 300,2236"/>
			<polygon fill="#404040" stroke="none" points="300,2250 313,2225 286,2225"/>
			<polyline fill="none" stroke="#404040" stroke-width="6" stroke-dasharray="none" points="300,2350 300,2475"/>
			<polyline fill="none" stroke="#404040" stroke-width="6" stroke-dasharray="none" points="300,2475 300,2586"/>
			<polygon fill="#404040" stroke="none" points="300,2600 313,2575 286,2575"/>
			<polyline fill="none" stroke="#404040" stroke-width="6" stroke-dasharray="none" points="300,2725 300,2786"/>
			<polygon fill="#404040" stroke="none" points="300,2800 313,2775 286,2775"/>
			<polyline fill="none" stroke="#404040" stroke-width="6" stroke-dasharray="none" points="300,2925 300,2986"/>
			<polygon fill="#404040" stroke="none" points="300,3000 313,2975 286,2975"/>
			<polyline fill="none" stroke="#404040" stroke-width="6" stroke-dasharray="none" points="300,3100 300,3161"/>
			<polygon fill="#404040" stroke="none" points="300,3175 313,3150 286,3150"/>
			<polyline fill="none" stroke="#404040" stroke-width="6" stroke-dasharray="none" points="300,3275 300,3425"/>
			<polyline fill="none" stroke="#404040" stroke-width="6" stroke-dasharray="none" points="300,3425 300,3561"/>
			<polygon fill="#404040" stroke="none" points="300,3575 313,3550 286,3550"/>
			<polyline fill="none" stroke="#404040" stroke-width="6" stroke-dasharray="none" points="300,3700 300,3761"/>
			<polygon fill="#404040" stroke="none" points="300,3775 313,3750 286,3750"/>
			<polyline fill="none" stroke="#404040" stroke-width="6" stroke-dasharray="none" points="300,3875 300,3936"/>
			<polygon fill="#404040" stroke="none" points="300,3950 313,3925 286,3925"/>
			<polyline fill="none" stroke="#404040" stroke-width="6" stroke-dasharray="none" points="300,4075 300,4136"/>
			<polygon fill="#404040" stroke="none" points="300,4150 313,4125 286,4125"/>
			<polyline fill="none" stroke="#404040" stroke-width="6" stroke-dasharray="none" points="300,4250 300,4311"/>
			<polygon fill="#404040" stroke="none" points="300,4325 313,4300 286,4300"/>
			<polyline fill="none" stroke="#404040" stroke-width="6" stroke-dasharray="none" points="300,4450 300,4511"/>
			<polygon fill="#404040" stroke="none" points="300,4525 313,4500 286,4500"/>
			<polyline fill="none" stroke="#404040" stroke-width="6" stroke-dasharray="none" points="300,4625 300,4711"/>
			<polygon fill="#404040" stroke="none" points="300,4725 313,4700 286,4700"/>
			<g>
				<path fill="#FFFFD0" stroke="#A0A070" stroke-width="3" stroke-dasharray="none" d="M 75,200 L 75,325 L 525,325 L 525,200 Z"/>
				<polyline fill="none" stroke="#A0A070" stroke-width="3" stroke-dasharray="none" points="75,225 525,225"/>
				<polyline fill="none" stroke="#A0A070" stroke-width="3" stroke-dasharray="none" points="100,200 100,325"/>
				<text x="312" y="240" fill="#000000" font-family="Arial" font-size="32pt" text-anchor="middle" direction="ltr">
					<tspan x="312" dy="50" unicode-bidi="embed">Integer BlinkDelay</tspan>
				</text>
			</g>
			<g>
				<path fill="#FFFFD0" stroke="#A0A070" stroke-width="3" stroke-dasharray="none" d="M 100,400 L 100,500 L 500,500 L 500,400 Z"/>
				<text x="300" y="415" fill="#000000" font-family="Arial" font-size="32pt" text-anchor="middle" direction="ltr">
					<tspan x="300" dy="50" unicode-bidi="embed">BlinkDelay = 150</tspan>
				</text>
			</g>
			<g>
				<path fill="#FFFFD0" stroke="#A0A070" stroke-width="3" stroke-dasharray="none" d="M 75,575 L 75,700 L 525,700 L 525,575 Z"/>
				<polyline fill="none" stroke="#A0A070" stroke-width="3" stroke-dasharray="none" points="75,600 525,600"/>
				<polyline fill="none" stroke="#A0A070" stroke-width="3" stroke-dasharray="none" points="100,575 100,700"/>
				<text x="312" y="615" fill="#000000" font-family="Arial" font-size="32pt" text-anchor="middle" direction="ltr">
					<tspan x="312" dy="50" unicode-bidi="embed">Integer BoardSize</tspan>
				</text>
			</g>
			<g>
				<path fill="#FFFFD0" stroke="#A0A070" stroke-width="3" stroke-dasharray="none" d="M 125,775 L 125,875 L 475,875 L 475,775 Z"/>
				<text x="300" y="790" fill="#000000" font-family="Arial" font-size="32pt" text-anchor="middle" direction="ltr">
					<tspan x="300" dy="50" unicode-bidi="embed">BoardSize = 3</tspan>
				</text>
			</g>
			<g>
				<polyline fill="none" stroke="#404040" stroke-width="6" stroke-dasharray="6,12" points="300,1000 425,1000"/>
				<g>
					<path fill="#FFFFFF" stroke="#606060" stroke-width="3" stroke-dasharray="6,6" d="M 425,950 L 425,1050 L 975,1050 L 975,950 Z"/>
					<text x="700" y="965" fill="#606060" font-family="Arial" font-size="32pt" text-anchor="middle" direction="ltr">
						<tspan x="700" dy="50" unicode-bidi="embed">Deklaracja Pin&#243;w Arduino</tspan>
					</text>
				</g>
			</g>
			<g>
				<polyline fill="none" stroke="#404040" stroke-width="6" stroke-dasharray="6,12" points="300,1175 425,1175"/>
				<g>
					<path fill="#FFFFFF" stroke="#606060" stroke-width="3" stroke-dasharray="6,6" d="M 425,1125 L 425,1225 L 725,1225 L 725,1125 Z"/>
					<text x="575" y="1140" fill="#606060" font-family="Arial" font-size="32pt" text-anchor="middle" direction="ltr">
						<tspan x="575" dy="50" unicode-bidi="embed">Przyciski</tspan>
					</text>
				</g>
			</g>
			<g>
				<path fill="#FFFFD0" stroke="#A0A070" stroke-width="3" stroke-dasharray="none" d="M 150,1300 L 150,1425 L 450,1425 L 450,1300 Z"/>
				<polyline fill="none" stroke="#A0A070" stroke-width="3" stroke-dasharray="none" points="150,1325 450,1325"/>
				<polyline fill="none" stroke="#A0A070" stroke-width="3" stroke-dasharray="none" points="175,1300 175,1425"/>
				<text x="312" y="1340" fill="#000000" font-family="Arial" font-size="32pt" text-anchor="middle" direction="ltr">
					<tspan x="312" dy="50" unicode-bidi="embed">Integer left</tspan>
				</text>
			</g>
			<g>
				<path fill="#FFFFD0" stroke="#A0A070" stroke-width="3" stroke-dasharray="none" d="M 125,1500 L 125,1625 L 475,1625 L 475,1500 Z"/>
				<polyline fill="none" stroke="#A0A070" stroke-width="3" stroke-dasharray="none" points="125,1525 475,1525"/>
				<polyline fill="none" stroke="#A0A070" stroke-width="3" stroke-dasharray="none" points="150,1500 150,1625"/>
				<text x="312" y="1540" fill="#000000" font-family="Arial" font-size="32pt" text-anchor="middle" direction="ltr">
					<tspan x="312" dy="50" unicode-bidi="embed">Integer right</tspan>
				</text>
			</g>
			<g>
				<path fill="#FFFFD0" stroke="#A0A070" stroke-width="3" stroke-dasharray="none" d="M 125,1700 L 125,1825 L 475,1825 L 475,1700 Z"/>
				<polyline fill="none" stroke="#A0A070" stroke-width="3" stroke-dasharray="none" points="125,1725 475,1725"/>
				<polyline fill="none" stroke="#A0A070" stroke-width="3" stroke-dasharray="none" points="150,1700 150,1825"/>
				<text x="312" y="1740" fill="#000000" font-family="Arial" font-size="32pt" text-anchor="middle" direction="ltr">
					<tspan x="312" dy="50" unicode-bidi="embed">Integer select</tspan>
				</text>
			</g>
			<g>
				<path fill="#FFFFD0" stroke="#A0A070" stroke-width="3" stroke-dasharray="none" d="M 150,1900 L 150,2000 L 450,2000 L 450,1900 Z"/>
				<text x="300" y="1915" fill="#000000" font-family="Arial" font-size="32pt" text-anchor="middle" direction="ltr">
					<tspan x="300" dy="50" unicode-bidi="embed">left = 11</tspan>
				</text>
			</g>
			<g>
				<path fill="#FFFFD0" stroke="#A0A070" stroke-width="3" stroke-dasharray="none" d="M 150,2075 L 150,2175 L 450,2175 L 450,2075 Z"/>
				<text x="300" y="2090" fill="#000000" font-family="Arial" font-size="32pt" text-anchor="middle" direction="ltr">
					<tspan x="300" dy="50" unicode-bidi="embed">right = 12</tspan>
				</text>
			</g>
			<g>
				<path fill="#FFFFD0" stroke="#A0A070" stroke-width="3" stroke-dasharray="none" d="M 150,2250 L 150,2350 L 450,2350 L 450,2250 Z"/>
				<text x="300" y="2265" fill="#000000" font-family="Arial" font-size="32pt" text-anchor="middle" direction="ltr">
					<tspan x="300" dy="50" unicode-bidi="embed">select = 10</tspan>
				</text>
			</g>
			<g>
				<polyline fill="none" stroke="#404040" stroke-width="6" stroke-dasharray="6,12" points="300,2475 425,2475"/>
				<g>
					<path fill="#FFFFFF" stroke="#606060" stroke-width="3" stroke-dasharray="6,6" d="M 425,2425 L 425,2525 L 1025,2525 L 1025,2425 Z"/>
					<text x="725" y="2440" fill="#606060" font-family="Arial" font-size="32pt" text-anchor="middle" direction="ltr">
						<tspan x="725" dy="50" unicode-bidi="embed">Diody sygnalizujace gracza</tspan>
					</text>
				</g>
			</g>
			<g>
				<path fill="#FFFFD0" stroke="#A0A070" stroke-width="3" stroke-dasharray="none" d="M 75,2600 L 75,2725 L 525,2725 L 525,2600 Z"/>
				<polyline fill="none" stroke="#A0A070" stroke-width="3" stroke-dasharray="none" points="75,2625 525,2625"/>
				<polyline fill="none" stroke="#A0A070" stroke-width="3" stroke-dasharray="none" points="100,2600 100,2725"/>
				<text x="312" y="2640" fill="#000000" font-family="Arial" font-size="32pt" text-anchor="middle" direction="ltr">
					<tspan x="312" dy="50" unicode-bidi="embed">Integer player1LED</tspan>
				</text>
			</g>
			<g>
				<path fill="#FFFFD0" stroke="#A0A070" stroke-width="3" stroke-dasharray="none" d="M 75,2800 L 75,2925 L 525,2925 L 525,2800 Z"/>
				<polyline fill="none" stroke="#A0A070" stroke-width="3" stroke-dasharray="none" points="75,2825 525,2825"/>
				<polyline fill="none" stroke="#A0A070" stroke-width="3" stroke-dasharray="none" points="100,2800 100,2925"/>
				<text x="312" y="2840" fill="#000000" font-family="Arial" font-size="32pt" text-anchor="middle" direction="ltr">
					<tspan x="312" dy="50" unicode-bidi="embed">Integer player2LED</tspan>
				</text>
			</g>
			<g>
				<path fill="#FFFFD0" stroke="#A0A070" stroke-width="3" stroke-dasharray="none" d="M 125,3000 L 125,3100 L 475,3100 L 475,3000 Z"/>
				<text x="300" y="3015" fill="#000000" font-family="Arial" font-size="32pt" text-anchor="middle" direction="ltr">
					<tspan x="300" dy="50" unicode-bidi="embed">player1LED = 9</tspan>
				</text>
			</g>
			<g>
				<path fill="#FFFFD0" stroke="#A0A070" stroke-width="3" stroke-dasharray="none" d="M 100,3175 L 100,3275 L 500,3275 L 500,3175 Z"/>
				<text x="300" y="3190" fill="#000000" font-family="Arial" font-size="32pt" text-anchor="middle" direction="ltr">
					<tspan x="300" dy="50" unicode-bidi="embed">player1LED = 13</tspan>
				</text>
			</g>
			<g>
				<polyline fill="none" stroke="#404040" stroke-width="6" stroke-dasharray="6,12" points="300,3425 425,3425"/>
				<g>
					<path fill="#FFFFFF" stroke="#606060" stroke-width="3" stroke-dasharray="6,6" d="M 425,3350 L 425,3500 L 1225,3500 L 1225,3350 Z"/>
					<text x="825" y="3365" fill="#606060" font-family="Arial" font-size="32pt" text-anchor="middle" direction="ltr">
						<tspan x="825" dy="50" unicode-bidi="embed">Pozycja programu (wyb&#243;r przeciwnika/</tspan>
						<tspan x="825" dy="50" unicode-bidi="embed">gra)</tspan>
					</text>
				</g>
			</g>
			<g>
				<path fill="#FFFFD0" stroke="#A0A070" stroke-width="3" stroke-dasharray="none" d="M 125,3575 L 125,3700 L 475,3700 L 475,3575 Z"/>
				<polyline fill="none" stroke="#A0A070" stroke-width="3" stroke-dasharray="none" points="125,3600 475,3600"/>
				<polyline fill="none" stroke="#A0A070" stroke-width="3" stroke-dasharray="none" points="150,3575 150,3700"/>
				<text x="312" y="3615" fill="#000000" font-family="Arial" font-size="32pt" text-anchor="middle" direction="ltr">
					<tspan x="312" dy="50" unicode-bidi="embed">Integer frame</tspan>
				</text>
			</g>
			<g>
				<path fill="#FFFFD0" stroke="#A0A070" stroke-width="3" stroke-dasharray="none" d="M 150,3775 L 150,3875 L 450,3875 L 450,3775 Z"/>
				<text x="300" y="3790" fill="#000000" font-family="Arial" font-size="32pt" text-anchor="middle" direction="ltr">
					<tspan x="300" dy="50" unicode-bidi="embed">frame = 0</tspan>
				</text>
			</g>
			<g>
				<path fill="#FFFFD0" stroke="#A0A070" stroke-width="3" stroke-dasharray="none" d="M 25,3950 L 25,4075 L 575,4075 L 575,3950 Z"/>
				<polyline fill="none" stroke="#A0A070" stroke-width="3" stroke-dasharray="none" points="25,3975 575,3975"/>
				<polyline fill="none" stroke="#A0A070" stroke-width="3" stroke-dasharray="none" points="50,3950 50,4075"/>
				<text x="312" y="3990" fill="#000000" font-family="Arial" font-size="32pt" text-anchor="middle" direction="ltr">
					<tspan x="312" dy="50" unicode-bidi="embed">Boolean buttonClicked</tspan>
				</text>
			</g>
			<g>
				<path fill="#FFFFD0" stroke="#A0A070" stroke-width="3" stroke-dasharray="none" d="M 50,4150 L 50,4250 L 550,4250 L 550,4150 Z"/>
				<text x="300" y="4165" fill="#000000" font-family="Arial" font-size="32pt" text-anchor="middle" direction="ltr">
					<tspan x="300" dy="50" unicode-bidi="embed">buttonClicked = false</tspan>
				</text>
			</g>
			<g>
				<path fill="#FFFFD0" stroke="#A0A070" stroke-width="3" stroke-dasharray="none" d="M 50,4325 L 50,4450 L 550,4450 L 550,4325 Z"/>
				<polyline fill="none" stroke="#A0A070" stroke-width="3" stroke-dasharray="none" points="50,4350 550,4350"/>
				<polyline fill="none" stroke="#A0A070" stroke-width="3" stroke-dasharray="none" points="75,4325 75,4450"/>
				<text x="312" y="4365" fill="#000000" font-family="Arial" font-size="32pt" text-anchor="middle" direction="ltr">
					<tspan x="312" dy="50" unicode-bidi="embed">Boolean playWithAI</tspan>
				</text>
			</g>
			<g>
				<path fill="#F0D0FF" stroke="#9070A0" stroke-width="3" stroke-dasharray="none" d="M 150,4525 L 150,4625 L 450,4625 L 450,4525 Z"/>
				<polyline fill="none" stroke="#9070A0" stroke-width="3" stroke-dasharray="none" points="175,4525 175,4625"/>
				<polyline fill="none" stroke="#9070A0" stroke-width="3" stroke-dasharray="none" points="425,4525 425,4625"/>
				<text x="300" y="4540" fill="#000000" font-family="Arial" font-size="32pt" text-anchor="middle" direction="ltr">
					<tspan x="300" dy="50" unicode-bidi="embed">Setup</tspan>
				</text>
			</g>
			<g>
				<polyline fill="none" stroke="#404040" stroke-width="6" stroke-dasharray="none" points="450,4775 625,4775 625,4861"/>
				<polygon fill="#404040" stroke="none" points="625,4875 638,4850 611,4850"/>
				<polyline fill="none" stroke="#404040" stroke-width="6" stroke-dasharray="none" points="625,4975 625,5050 350,5050 350,4838"/>
				<polygon fill="#404040" stroke="none" points="350,4825 336,4849 363,4849"/>
				<g>
					<path fill="#F0D0FF" stroke="#9070A0" stroke-width="3" stroke-dasharray="none" d="M 475,4875 L 475,4975 L 775,4975 L 775,4875 Z"/>
					<polyline fill="none" stroke="#9070A0" stroke-width="3" stroke-dasharray="none" points="500,4875 500,4975"/>
					<polyline fill="none" stroke="#9070A0" stroke-width="3" stroke-dasharray="none" points="750,4875 750,4975"/>
					<text x="625" y="4890" fill="#000000" font-family="Arial" font-size="32pt" text-anchor="middle" direction="ltr">
						<tspan x="625" dy="50" unicode-bidi="embed">Loop</tspan>
					</text>
				</g>
				<g>
					<path fill="#FFE0A0" stroke="#A08040" stroke-width="3" stroke-dasharray="none" d="M 200,4725 L 150,4775 L 200,4825 L 400,4825 L 450,4775 L 400,4725 Z"/>
					<text x="300" y="4740" fill="#000000" font-family="Arial" font-size="32pt" text-anchor="middle" direction="ltr">
						<tspan x="300" dy="50" unicode-bidi="embed">True</tspan>
					</text>
				</g>
				<text x="550" y="4690" fill="#000000" font-family="Arial" font-size="32pt" text-anchor="middle" direction="ltr">
					<tspan x="550" dy="50" unicode-bidi="embed">Prawda</tspan>
				</text>
				<text x="212" y="4840" fill="#000000" font-family="Arial" font-size="32pt" text-anchor="middle" direction="ltr">
					<tspan x="212" dy="50" unicode-bidi="embed">Fa&#322;sz</tspan>
				</text>
			</g>
		</g>
	</g>
</svg>
