<?xml version="1.0" encoding="UTF-8" standalone="no"?>
<!-- Created by Flowgorithm 2.30.3 (http://flowgorithm.org) -->

<svg xmlns:svg="http://www.w3.org/2000/svg" xmlns="http://www.w3.org/2000/svg" version="1.1" width="3100" height="4800">
	<g>
		<polyline fill="none" stroke="#404040" stroke-width="6" stroke-dasharray="none" points="450,175 450,236"/>
		<polygon fill="#404040" stroke="none" points="450,250 463,225 436,225"/>
		<polyline fill="none" stroke="#404040" stroke-width="6" stroke-dasharray="none" points="450,3325 450,4661"/>
		<polygon fill="#404040" stroke="none" points="450,4675 463,4650 436,4650"/>
		<g>
			<path fill="#F0D0FF" stroke="#9070A0" stroke-width="3" stroke-dasharray="none" d="M 100,25 A 75,75 0 0,0 100,175 L 800,175 A 75,75 0 0,0 800,25 Z"/>
			<text x="450" y="40" fill="#000000" font-family="Arial" font-size="32pt" text-anchor="middle" direction="ltr">
				<tspan x="450" dy="50" unicode-bidi="embed">findMov</tspan>
				<tspan x="450" dy="50" unicode-bidi="embed">(String Tablica board, String player)</tspan>
			</text>
		</g>
		<g>
			<path fill="#F0D0FF" stroke="#9070A0" stroke-width="3" stroke-dasharray="none" d="M 250,4675 A 50,50 0 0,0 250,4775 L 650,4775 A 50,50 0 0,0 650,4675 Z"/>
			<text x="450" y="4690" fill="#000000" font-family="Arial" font-size="32pt" text-anchor="middle" direction="ltr">
				<tspan x="450" dy="50" unicode-bidi="embed">Zwraca String point</tspan>
			</text>
		</g>
		<g>
			<polyline fill="none" stroke="#404040" stroke-width="6" stroke-dasharray="none" points="450,475 450,536"/>
			<polygon fill="#404040" stroke="none" points="450,550 463,525 436,525"/>
			<polyline fill="none" stroke="#404040" stroke-width="6" stroke-dasharray="none" points="450,675 450,736"/>
			<polygon fill="#404040" stroke="none" points="450,750 463,725 436,725"/>
			<polyline fill="none" stroke="#404040" stroke-width="6" stroke-dasharray="none" points="450,850 450,911"/>
			<polygon fill="#404040" stroke="none" points="450,925 463,900 436,900"/>
			<polyline fill="none" stroke="#404040" stroke-width="6" stroke-dasharray="none" points="450,1075 450,1386"/>
			<polygon fill="#404040" stroke="none" points="450,1400 463,1375 436,1375"/>
			<polyline fill="none" stroke="#404040" stroke-width="6" stroke-dasharray="none" points="450,1500 450,3211"/>
			<polygon fill="#404040" stroke="none" points="450,3225 463,3200 436,3200"/>
			<g>
				<path fill="#FFFFD0" stroke="#A0A070" stroke-width="3" stroke-dasharray="none" d="M 150,250 L 150,475 L 750,475 L 750,250 Z"/>
				<polyline fill="none" stroke="#A0A070" stroke-width="3" stroke-dasharray="none" points="150,275 750,275"/>
				<polyline fill="none" stroke="#A0A070" stroke-width="3" stroke-dasharray="none" points="175,250 175,475"/>
				<text x="462" y="290" fill="#000000" font-family="Arial" font-size="32pt" text-anchor="middle" direction="ltr">
					<tspan x="462" dy="50" unicode-bidi="embed">Integer Tablica</tspan>
					<tspan x="462" dy="50" unicode-bidi="embed"> PosibleMoves[BoardSize *</tspan>
					<tspan x="462" dy="50" unicode-bidi="embed"> BoardSize]</tspan>
				</text>
			</g>
			<g>
				<path fill="#FFFFD0" stroke="#A0A070" stroke-width="3" stroke-dasharray="none" d="M 300,550 L 300,675 L 600,675 L 600,550 Z"/>
				<polyline fill="none" stroke="#A0A070" stroke-width="3" stroke-dasharray="none" points="300,575 600,575"/>
				<polyline fill="none" stroke="#A0A070" stroke-width="3" stroke-dasharray="none" points="325,550 325,675"/>
				<text x="462" y="590" fill="#000000" font-family="Arial" font-size="32pt" text-anchor="middle" direction="ltr">
					<tspan x="462" dy="50" unicode-bidi="embed">String point</tspan>
				</text>
			</g>
			<g>
				<path fill="#FFFFD0" stroke="#A0A070" stroke-width="3" stroke-dasharray="none" d="M 275,750 L 275,850 L 625,850 L 625,750 Z"/>
				<text x="450" y="765" fill="#000000" font-family="Arial" font-size="32pt" text-anchor="middle" direction="ltr">
					<tspan x="450" dy="50" unicode-bidi="embed">point = NULL</tspan>
				</text>
			</g>
			<g>
				<polyline fill="none" stroke="#404040" stroke-width="6" stroke-dasharray="none" points="750,1000 975,1000 975,1111"/>
				<polygon fill="#404040" stroke="none" points="975,1125 988,1100 961,1100"/>
				<polyline fill="none" stroke="#404040" stroke-width="6" stroke-dasharray="none" points="975,1225 975,1300 500,1300 500,1088"/>
				<polygon fill="#404040" stroke="none" points="500,1075 486,1099 513,1099"/>
				<g>
					<path fill="#FFFFD0" stroke="#A0A070" stroke-width="3" stroke-dasharray="none" d="M 700,1125 L 700,1225 L 1250,1225 L 1250,1125 Z"/>
					<text x="975" y="1140" fill="#000000" font-family="Arial" font-size="32pt" text-anchor="middle" direction="ltr">
						<tspan x="975" dy="50" unicode-bidi="embed">PosibleMoves[i] = player</tspan>
					</text>
				</g>
				<g>
					<path fill="#FFE0A0" stroke="#A08040" stroke-width="3" stroke-dasharray="none" d="M 225,925 L 150,1000 L 225,1075 L 675,1075 L 750,1000 L 675,925 Z"/>
					<text x="450" y="940" fill="#000000" font-family="Arial" font-size="32pt" text-anchor="middle" direction="ltr">
						<tspan x="450" dy="50" unicode-bidi="embed">i = 0 do BoardSize *</tspan>
						<tspan x="450" dy="50" unicode-bidi="embed"> BoardSize</tspan>
					</text>
				</g>
				<text x="875" y="915" fill="#000000" font-family="Arial" font-size="32pt" text-anchor="middle" direction="ltr">
					<tspan x="875" dy="50" unicode-bidi="embed">Nast&#281;pny</tspan>
				</text>
				<text x="312" y="1090" fill="#000000" font-family="Arial" font-size="32pt" text-anchor="middle" direction="ltr">
					<tspan x="312" dy="50" unicode-bidi="embed">Wykonano</tspan>
				</text>
			</g>
			<g>
				<polyline fill="none" stroke="#404040" stroke-width="6" stroke-dasharray="none" points="725,1450 950,1450 950,1561"/>
				<polygon fill="#404040" stroke="none" points="950,1575 963,1550 936,1550"/>
				<polyline fill="none" stroke="#404040" stroke-width="6" stroke-dasharray="none" points="950,1675 950,3125 500,3125 500,1513"/>
				<polygon fill="#404040" stroke="none" points="500,1500 486,1524 513,1524"/>
				<g>
					<polyline fill="none" stroke="#404040" stroke-width="6" stroke-dasharray="none" points="1225,1625 1675,1625 1675,1711"/>
					<polygon fill="#404040" stroke="none" points="1675,1725 1688,1700 1661,1700"/>
					<polyline fill="none" stroke="#404040" stroke-width="6" stroke-dasharray="none" points="1675,2975 1675,3050 1000,3050 1000,1688"/>
					<polygon fill="#404040" stroke="none" points="1000,1675 986,1699 1013,1699"/>
					<g>
						<polyline fill="none" stroke="#404040" stroke-width="6" stroke-dasharray="none" points="2075,1950 2275,1950 2275,2236"/>
						<polygon fill="#404040" stroke="none" points="2275,2250 2288,2225 2261,2225"/>
						<polyline fill="none" stroke="#404040" stroke-width="6" stroke-dasharray="none" points="2275,2350 2275,2950 1713,2950"/>
						<polygon fill="#404040" stroke="none" points="1700,2950 1724,2963 1724,2936"/>
						<polyline fill="none" stroke="#404040" stroke-width="6" stroke-dasharray="none" points="1275,1950 1100,1950 1100,2950 1636,2950"/>
						<polygon fill="#404040" stroke="none" points="1650,2950 1625,2936 1625,2963"/>
						<g>
							<path fill="#FFD0D0" stroke="#A07070" stroke-width="3" stroke-dasharray="none" d="M 1675,1725 L 1250,1950 L 1675,2175 L 2100,1950 Z"/>
							<text x="1675" y="1865" fill="#000000" font-family="Arial" font-size="32pt" text-anchor="middle" direction="ltr">
								<tspan x="1675" dy="50" unicode-bidi="embed">board[i * BoardSize + j] !=</tspan>
								<tspan x="1675" dy="50" unicode-bidi="embed"> EMPTY &amp;&amp; board[i *</tspan>
								<tspan x="1675" dy="50" unicode-bidi="embed"> BoardSize + j] != player</tspan>
							</text>
						</g>
						<g>
							<polyline fill="none" stroke="#404040" stroke-width="6" stroke-dasharray="none" points="2550,2300 2775,2300 2775,2386"/>
							<polygon fill="#404040" stroke="none" points="2775,2400 2788,2375 2761,2375"/>
							<polyline fill="none" stroke="#404040" stroke-width="6" stroke-dasharray="none" points="2775,2775 2775,2850 2325,2850 2325,2363"/>
							<polygon fill="#404040" stroke="none" points="2325,2350 2311,2374 2338,2374"/>
							<g>
								<polyline fill="none" stroke="#404040" stroke-width="6" stroke-dasharray="none" points="2775,2550 2775,2611"/>
								<polygon fill="#404040" stroke="none" points="2775,2625 2788,2600 2761,2600"/>
								<g>
									<path fill="#FFFFD0" stroke="#A0A070" stroke-width="3" stroke-dasharray="none" d="M 2475,2400 L 2475,2550 L 3075,2550 L 3075,2400 Z"/>
									<text x="2775" y="2415" fill="#000000" font-family="Arial" font-size="32pt" text-anchor="middle" direction="ltr">
										<tspan x="2775" dy="50" unicode-bidi="embed">PosibleMoves[x * BoarsSize</tspan>
										<tspan x="2775" dy="50" unicode-bidi="embed"> + j] = EMPTY</tspan>
									</text>
								</g>
								<g>
									<path fill="#FFFFD0" stroke="#A0A070" stroke-width="3" stroke-dasharray="none" d="M 2475,2625 L 2475,2775 L 3075,2775 L 3075,2625 Z"/>
									<text x="2775" y="2640" fill="#000000" font-family="Arial" font-size="32pt" text-anchor="middle" direction="ltr">
										<tspan x="2775" dy="50" unicode-bidi="embed">PosibleMoves[i * BoarsSize</tspan>
										<tspan x="2775" dy="50" unicode-bidi="embed"> + x] = EMPTY</tspan>
									</text>
								</g>
							</g>
							<g>
								<path fill="#FFE0A0" stroke="#A08040" stroke-width="3" stroke-dasharray="none" d="M 2050,2250 L 2000,2300 L 2050,2350 L 2500,2350 L 2550,2300 L 2500,2250 Z"/>
								<text x="2275" y="2265" fill="#000000" font-family="Arial" font-size="32pt" text-anchor="middle" direction="ltr">
									<tspan x="2275" dy="50" unicode-bidi="embed">x = 0 do BoardSize</tspan>
								</text>
							</g>
							<text x="2675" y="2215" fill="#000000" font-family="Arial" font-size="32pt" text-anchor="middle" direction="ltr">
								<tspan x="2675" dy="50" unicode-bidi="embed">Nast&#281;pny</tspan>
							</text>
							<text x="2137" y="2365" fill="#000000" font-family="Arial" font-size="32pt" text-anchor="middle" direction="ltr">
								<tspan x="2137" dy="50" unicode-bidi="embed">Wykonano</tspan>
							</text>
						</g>
						<g>
						</g>
						<ellipse cx="1675" cy="2950" rx="25" ry="25" fill="#FFD0D0" stroke="#A07070" stroke-width="3"/>
						<text x="2200" y="1865" fill="#000000" font-family="Arial" font-size="32pt" text-anchor="middle" direction="ltr">
							<tspan x="2200" dy="50" unicode-bidi="embed">Prawda</tspan>
						</text>
						<text x="1162" y="1865" fill="#000000" font-family="Arial" font-size="32pt" text-anchor="middle" direction="ltr">
							<tspan x="1162" dy="50" unicode-bidi="embed">Fa&#322;sz</tspan>
						</text>
					</g>
					<g>
						<path fill="#FFE0A0" stroke="#A08040" stroke-width="3" stroke-dasharray="none" d="M 725,1575 L 675,1625 L 725,1675 L 1175,1675 L 1225,1625 L 1175,1575 Z"/>
						<text x="950" y="1590" fill="#000000" font-family="Arial" font-size="32pt" text-anchor="middle" direction="ltr">
							<tspan x="950" dy="50" unicode-bidi="embed">j = 0 do BoardSize</tspan>
						</text>
					</g>
					<text x="1350" y="1540" fill="#000000" font-family="Arial" font-size="32pt" text-anchor="middle" direction="ltr">
						<tspan x="1350" dy="50" unicode-bidi="embed">Nast&#281;pny</tspan>
					</text>
					<text x="812" y="1690" fill="#000000" font-family="Arial" font-size="32pt" text-anchor="middle" direction="ltr">
						<tspan x="812" dy="50" unicode-bidi="embed">Wykonano</tspan>
					</text>
				</g>
				<g>
					<path fill="#FFE0A0" stroke="#A08040" stroke-width="3" stroke-dasharray="none" d="M 225,1400 L 175,1450 L 225,1500 L 675,1500 L 725,1450 L 675,1400 Z"/>
					<text x="450" y="1415" fill="#000000" font-family="Arial" font-size="32pt" text-anchor="middle" direction="ltr">
						<tspan x="450" dy="50" unicode-bidi="embed">i = 0 do BoardSize</tspan>
					</text>
				</g>
				<text x="850" y="1365" fill="#000000" font-family="Arial" font-size="32pt" text-anchor="middle" direction="ltr">
					<tspan x="850" dy="50" unicode-bidi="embed">Nast&#281;pny</tspan>
				</text>
				<text x="312" y="1515" fill="#000000" font-family="Arial" font-size="32pt" text-anchor="middle" direction="ltr">
					<tspan x="312" dy="50" unicode-bidi="embed">Wykonano</tspan>
				</text>
			</g>
			<g>
				<polyline fill="none" stroke="#404040" stroke-width="6" stroke-dasharray="none" points="725,3275 950,3275 950,3386"/>
				<polygon fill="#404040" stroke="none" points="950,3400 963,3375 936,3375"/>
				<polyline fill="none" stroke="#404040" stroke-width="6" stroke-dasharray="none" points="950,3500 950,4600 500,4600 500,3338"/>
				<polygon fill="#404040" stroke="none" points="500,3325 486,3349 513,3349"/>
				<g>
					<polyline fill="none" stroke="#404040" stroke-width="6" stroke-dasharray="none" points="1225,3450 1700,3450 1700,3536"/>
					<polygon fill="#404040" stroke="none" points="1700,3550 1713,3525 1686,3525"/>
					<polyline fill="none" stroke="#404040" stroke-width="6" stroke-dasharray="none" points="1700,4450 1700,4525 1000,4525 1000,3513"/>
					<polygon fill="#404040" stroke="none" points="1000,3500 986,3524 1013,3524"/>
					<g>
						<polyline fill="none" stroke="#404040" stroke-width="6" stroke-dasharray="none" points="2125,3775 2325,3775 2325,4036"/>
						<polygon fill="#404040" stroke="none" points="2325,4050 2338,4025 2311,4025"/>
						<polyline fill="none" stroke="#404040" stroke-width="6" stroke-dasharray="none" points="2325,4325 2325,4425 1738,4425"/>
						<polygon fill="#404040" stroke="none" points="1725,4425 1749,4438 1749,4411"/>
						<polyline fill="none" stroke="#404040" stroke-width="6" stroke-dasharray="none" points="1275,3775 1100,3775 1100,4425 1661,4425"/>
						<polygon fill="#404040" stroke="none" points="1675,4425 1650,4411 1650,4438"/>
						<g>
							<path fill="#FFD0D0" stroke="#A07070" stroke-width="3" stroke-dasharray="none" d="M 1700,3550 L 1250,3775 L 1700,4000 L 2150,3775 Z"/>
							<text x="1700" y="3690" fill="#000000" font-family="Arial" font-size="32pt" text-anchor="middle" direction="ltr">
								<tspan x="1700" dy="50" unicode-bidi="embed">PosibleMoves[i * BoarsSize</tspan>
								<tspan x="1700" dy="50" unicode-bidi="embed"> + j] == player &amp;&amp; board[i *</tspan>
								<tspan x="1700" dy="50" unicode-bidi="embed"> BoarsSize + j] == EMPTY</tspan>
							</text>
						</g>
						<g>
							<polyline fill="none" stroke="#404040" stroke-width="6" stroke-dasharray="none" points="2325,4150 2325,4211"/>
							<polygon fill="#404040" stroke="none" points="2325,4225 2338,4200 2311,4200"/>
							<g>
								<path fill="#C04040" stroke="#602020" stroke-width="3" stroke-dasharray="none" d="M 2100,4050 L 2100,4150 L 2550,4150 L 2550,4050 Z"/>
								<text x="2325" y="4065" fill="#FFFFFF" font-family="Arial" font-size="32pt" text-anchor="middle" direction="ltr">
									<tspan x="2325" dy="50" unicode-bidi="embed">point = new point(j,i)</tspan>
								</text>
							</g>
							<g>
								<path fill="#F0D0FF" stroke="#9070A0" stroke-width="3" stroke-dasharray="none" d="M 2175,4225 L 2175,4325 L 2475,4325 L 2475,4225 Z"/>
								<polyline fill="none" stroke="#9070A0" stroke-width="3" stroke-dasharray="none" points="2200,4225 2200,4325"/>
								<polyline fill="none" stroke="#9070A0" stroke-width="3" stroke-dasharray="none" points="2450,4225 2450,4325"/>
								<text x="2325" y="4240" fill="#000000" font-family="Arial" font-size="32pt" text-anchor="middle" direction="ltr">
									<tspan x="2325" dy="50" unicode-bidi="embed">break</tspan>
								</text>
							</g>
						</g>
						<g>
						</g>
						<ellipse cx="1700" cy="4425" rx="25" ry="25" fill="#FFD0D0" stroke="#A07070" stroke-width="3"/>
						<text x="2250" y="3690" fill="#000000" font-family="Arial" font-size="32pt" text-anchor="middle" direction="ltr">
							<tspan x="2250" dy="50" unicode-bidi="embed">Prawda</tspan>
						</text>
						<text x="1162" y="3690" fill="#000000" font-family="Arial" font-size="32pt" text-anchor="middle" direction="ltr">
							<tspan x="1162" dy="50" unicode-bidi="embed">Fa&#322;sz</tspan>
						</text>
					</g>
					<g>
						<path fill="#FFE0A0" stroke="#A08040" stroke-width="3" stroke-dasharray="none" d="M 725,3400 L 675,3450 L 725,3500 L 1175,3500 L 1225,3450 L 1175,3400 Z"/>
						<text x="950" y="3415" fill="#000000" font-family="Arial" font-size="32pt" text-anchor="middle" direction="ltr">
							<tspan x="950" dy="50" unicode-bidi="embed">j = 0 do BoardSize</tspan>
						</text>
					</g>
					<text x="1350" y="3365" fill="#000000" font-family="Arial" font-size="32pt" text-anchor="middle" direction="ltr">
						<tspan x="1350" dy="50" unicode-bidi="embed">Nast&#281;pny</tspan>
					</text>
					<text x="812" y="3515" fill="#000000" font-family="Arial" font-size="32pt" text-anchor="middle" direction="ltr">
						<tspan x="812" dy="50" unicode-bidi="embed">Wykonano</tspan>
					</text>
				</g>
				<g>
					<path fill="#FFE0A0" stroke="#A08040" stroke-width="3" stroke-dasharray="none" d="M 225,3225 L 175,3275 L 225,3325 L 675,3325 L 725,3275 L 675,3225 Z"/>
					<text x="450" y="3240" fill="#000000" font-family="Arial" font-size="32pt" text-anchor="middle" direction="ltr">
						<tspan x="450" dy="50" unicode-bidi="embed">i = 0 do BoardSize</tspan>
					</text>
				</g>
				<text x="850" y="3190" fill="#000000" font-family="Arial" font-size="32pt" text-anchor="middle" direction="ltr">
					<tspan x="850" dy="50" unicode-bidi="embed">Nast&#281;pny</tspan>
				</text>
				<text x="312" y="3340" fill="#000000" font-family="Arial" font-size="32pt" text-anchor="middle" direction="ltr">
					<tspan x="312" dy="50" unicode-bidi="embed">Wykonano</tspan>
				</text>
			</g>
		</g>
	</g>
</svg>
