<?xml version="1.0" encoding="UTF-8" standalone="no"?>
<!-- Created by Flowgorithm 2.30.3 (http://flowgorithm.org) -->

<svg xmlns:svg="http://www.w3.org/2000/svg" xmlns="http://www.w3.org/2000/svg" version="1.1" width="1225" height="1200">
	<g>
		<polyline fill="none" stroke="#404040" stroke-width="6" stroke-dasharray="none" points="375,125 375,186"/>
		<polygon fill="#404040" stroke="none" points="375,200 388,175 361,175"/>
		<polyline fill="none" stroke="#404040" stroke-width="6" stroke-dasharray="none" points="375,1000 375,1061"/>
		<polygon fill="#404040" stroke="none" points="375,1075 388,1050 361,1050"/>
		<g>
			<path fill="#F0D0FF" stroke="#9070A0" stroke-width="3" stroke-dasharray="none" d="M 275,25 A 50,50 0 0,0 275,125 L 475,125 A 50,50 0 0,0 475,25 Z"/>
			<text x="375" y="40" fill="#000000" font-family="Arial" font-size="32pt" text-anchor="middle" direction="ltr">
				<tspan x="375" dy="50" unicode-bidi="embed">Loop</tspan>
			</text>
		</g>
		<g>
			<path fill="#F0D0FF" stroke="#9070A0" stroke-width="3" stroke-dasharray="none" d="M 275,1075 A 50,50 0 0,0 275,1175 L 475,1175 A 50,50 0 0,0 475,1075 Z"/>
			<text x="375" y="1090" fill="#000000" font-family="Arial" font-size="32pt" text-anchor="middle" direction="ltr">
				<tspan x="375" dy="50" unicode-bidi="embed">Koniec</tspan>
			</text>
		</g>
		<g>
			<polyline fill="none" stroke="#404040" stroke-width="6" stroke-dasharray="none" points="550,300 800,300 800,436"/>
			<polygon fill="#404040" stroke="none" points="800,450 813,425 786,425"/>
			<polyline fill="none" stroke="#404040" stroke-width="6" stroke-dasharray="none" points="800,875 800,975 413,975"/>
			<polygon fill="#404040" stroke="none" points="400,975 424,988 424,961"/>
			<polyline fill="none" stroke="#404040" stroke-width="6" stroke-dasharray="none" points="200,300 25,300 25,975 336,975"/>
			<polygon fill="#404040" stroke="none" points="350,975 325,961 325,988"/>
			<g>
				<path fill="#FFD0D0" stroke="#A07070" stroke-width="3" stroke-dasharray="none" d="M 375,200 L 175,300 L 375,400 L 575,300 Z"/>
				<text x="375" y="265" fill="#000000" font-family="Arial" font-size="32pt" text-anchor="middle" direction="ltr">
					<tspan x="375" dy="50" unicode-bidi="embed">frame == 0</tspan>
				</text>
			</g>
			<g>
				<polyline fill="none" stroke="#404040" stroke-width="6" stroke-dasharray="none" points="1000,575 1200,575 1200,850 838,850"/>
				<polygon fill="#404040" stroke="none" points="825,850 849,863 849,836"/>
				<polyline fill="none" stroke="#404040" stroke-width="6" stroke-dasharray="none" points="600,575 425,575 425,850 761,850"/>
				<polygon fill="#404040" stroke="none" points="775,850 750,836 750,863"/>
				<g>
					<path fill="#FFD0D0" stroke="#A07070" stroke-width="3" stroke-dasharray="none" d="M 800,450 L 575,575 L 800,700 L 1025,575 Z"/>
					<text x="800" y="540" fill="#000000" font-family="Arial" font-size="32pt" text-anchor="middle" direction="ltr">
						<tspan x="800" dy="50" unicode-bidi="embed">!buttonClicked</tspan>
					</text>
				</g>
				<g>
				</g>
				<g>
				</g>
				<ellipse cx="800" cy="850" rx="25" ry="25" fill="#FFD0D0" stroke="#A07070" stroke-width="3"/>
				<text x="1125" y="490" fill="#000000" font-family="Arial" font-size="32pt" text-anchor="middle" direction="ltr">
					<tspan x="1125" dy="50" unicode-bidi="embed">Prawda</tspan>
				</text>
				<text x="487" y="490" fill="#000000" font-family="Arial" font-size="32pt" text-anchor="middle" direction="ltr">
					<tspan x="487" dy="50" unicode-bidi="embed">Fa&#322;sz</tspan>
				</text>
			</g>
			<g>
			</g>
			<ellipse cx="375" cy="975" rx="25" ry="25" fill="#FFD0D0" stroke="#A07070" stroke-width="3"/>
			<text x="675" y="215" fill="#000000" font-family="Arial" font-size="32pt" text-anchor="middle" direction="ltr">
				<tspan x="675" dy="50" unicode-bidi="embed">Prawda</tspan>
			</text>
			<text x="87" y="215" fill="#000000" font-family="Arial" font-size="32pt" text-anchor="middle" direction="ltr">
				<tspan x="87" dy="50" unicode-bidi="embed">Fa&#322;sz</tspan>
			</text>
		</g>
	</g>
</svg>
