<?xml version="1.0" encoding="UTF-8" standalone="no"?>
<!-- Created by Flowgorithm 2.30.3 (http://flowgorithm.org) -->

<svg xmlns:svg="http://www.w3.org/2000/svg" xmlns="http://www.w3.org/2000/svg" version="1.1" width="600" height="1450">
	<g>
		<polyline fill="none" stroke="#404040" stroke-width="6" stroke-dasharray="none" points="300,125 300,186"/>
		<polygon fill="#404040" stroke="none" points="300,200 313,175 286,175"/>
		<polyline fill="none" stroke="#404040" stroke-width="6" stroke-dasharray="none" points="300,1250 300,1311"/>
		<polygon fill="#404040" stroke="none" points="300,1325 313,1300 286,1300"/>
		<g>
			<path fill="#F0D0FF" stroke="#9070A0" stroke-width="3" stroke-dasharray="none" d="M 200,25 A 50,50 0 0,0 200,125 L 400,125 A 50,50 0 0,0 400,25 Z"/>
			<text x="300" y="40" fill="#000000" font-family="Arial" font-size="32pt" text-anchor="middle" direction="ltr">
				<tspan x="300" dy="50" unicode-bidi="embed">Setup</tspan>
			</text>
		</g>
		<g>
			<path fill="#F0D0FF" stroke="#9070A0" stroke-width="3" stroke-dasharray="none" d="M 200,1325 A 50,50 0 0,0 200,1425 L 400,1425 A 50,50 0 0,0 400,1325 Z"/>
			<text x="300" y="1340" fill="#000000" font-family="Arial" font-size="32pt" text-anchor="middle" direction="ltr">
				<tspan x="300" dy="50" unicode-bidi="embed">Koniec</tspan>
			</text>
		</g>
		<g>
			<polyline fill="none" stroke="#404040" stroke-width="6" stroke-dasharray="none" points="300,350 300,411"/>
			<polygon fill="#404040" stroke="none" points="300,425 313,400 286,400"/>
			<polyline fill="none" stroke="#404040" stroke-width="6" stroke-dasharray="none" points="300,575 300,636"/>
			<polygon fill="#404040" stroke="none" points="300,650 313,625 286,625"/>
			<polyline fill="none" stroke="#404040" stroke-width="6" stroke-dasharray="none" points="300,800 300,861"/>
			<polygon fill="#404040" stroke="none" points="300,875 313,850 286,850"/>
			<polyline fill="none" stroke="#404040" stroke-width="6" stroke-dasharray="none" points="300,1025 300,1086"/>
			<polygon fill="#404040" stroke="none" points="300,1100 313,1075 286,1075"/>
			<g>
				<path fill="#F0D0FF" stroke="#9070A0" stroke-width="3" stroke-dasharray="none" d="M 25,200 L 25,350 L 575,350 L 575,200 Z"/>
				<polyline fill="none" stroke="#9070A0" stroke-width="3" stroke-dasharray="none" points="50,200 50,350"/>
				<polyline fill="none" stroke="#9070A0" stroke-width="3" stroke-dasharray="none" points="550,200 550,350"/>
				<text x="300" y="215" fill="#000000" font-family="Arial" font-size="32pt" text-anchor="middle" direction="ltr">
					<tspan x="300" dy="50" unicode-bidi="embed">pinMode(player1LED,</tspan>
					<tspan x="300" dy="50" unicode-bidi="embed"> OUTPUT)</tspan>
				</text>
			</g>
			<g>
				<path fill="#F0D0FF" stroke="#9070A0" stroke-width="3" stroke-dasharray="none" d="M 25,425 L 25,575 L 575,575 L 575,425 Z"/>
				<polyline fill="none" stroke="#9070A0" stroke-width="3" stroke-dasharray="none" points="50,425 50,575"/>
				<polyline fill="none" stroke="#9070A0" stroke-width="3" stroke-dasharray="none" points="550,425 550,575"/>
				<text x="300" y="440" fill="#000000" font-family="Arial" font-size="32pt" text-anchor="middle" direction="ltr">
					<tspan x="300" dy="50" unicode-bidi="embed">pinMode(player2LED,</tspan>
					<tspan x="300" dy="50" unicode-bidi="embed"> OUTPUT)</tspan>
				</text>
			</g>
			<g>
				<path fill="#F0D0FF" stroke="#9070A0" stroke-width="3" stroke-dasharray="none" d="M 75,650 L 75,800 L 525,800 L 525,650 Z"/>
				<polyline fill="none" stroke="#9070A0" stroke-width="3" stroke-dasharray="none" points="100,650 100,800"/>
				<polyline fill="none" stroke="#9070A0" stroke-width="3" stroke-dasharray="none" points="500,650 500,800"/>
				<text x="300" y="665" fill="#000000" font-family="Arial" font-size="32pt" text-anchor="middle" direction="ltr">
					<tspan x="300" dy="50" unicode-bidi="embed">pinMode(select,</tspan>
					<tspan x="300" dy="50" unicode-bidi="embed"> INPUTPULLUP)</tspan>
				</text>
			</g>
			<g>
				<path fill="#F0D0FF" stroke="#9070A0" stroke-width="3" stroke-dasharray="none" d="M 75,875 L 75,1025 L 525,1025 L 525,875 Z"/>
				<polyline fill="none" stroke="#9070A0" stroke-width="3" stroke-dasharray="none" points="100,875 100,1025"/>
				<polyline fill="none" stroke="#9070A0" stroke-width="3" stroke-dasharray="none" points="500,875 500,1025"/>
				<text x="300" y="890" fill="#000000" font-family="Arial" font-size="32pt" text-anchor="middle" direction="ltr">
					<tspan x="300" dy="50" unicode-bidi="embed">pinMode(left,</tspan>
					<tspan x="300" dy="50" unicode-bidi="embed"> INPUTPULLUP)</tspan>
				</text>
			</g>
			<g>
				<path fill="#F0D0FF" stroke="#9070A0" stroke-width="3" stroke-dasharray="none" d="M 75,1100 L 75,1250 L 525,1250 L 525,1100 Z"/>
				<polyline fill="none" stroke="#9070A0" stroke-width="3" stroke-dasharray="none" points="100,1100 100,1250"/>
				<polyline fill="none" stroke="#9070A0" stroke-width="3" stroke-dasharray="none" points="500,1100 500,1250"/>
				<text x="300" y="1115" fill="#000000" font-family="Arial" font-size="32pt" text-anchor="middle" direction="ltr">
					<tspan x="300" dy="50" unicode-bidi="embed">pinMode(right,</tspan>
					<tspan x="300" dy="50" unicode-bidi="embed"> INPUTPULLUP)</tspan>
				</text>
			</g>
		</g>
	</g>
</svg>
