<?xml version="1.0" encoding="UTF-8" standalone="no"?>
<!-- Created by Flowgorithm 2.30.3 (http://flowgorithm.org) -->

<svg xmlns:svg="http://www.w3.org/2000/svg" xmlns="http://www.w3.org/2000/svg" version="1.1" width="5675" height="7225">
	<rect x="0" y="0" width="5675" height="7225" fill="#FFFFFF"/>
	<g>
		<polyline fill="none" stroke="#404040" stroke-width="6" stroke-dasharray="none" points="4800,250 4800,311"/>
		<polygon fill="#404040" stroke="none" points="4800,325 4813,300 4786,300"/>
		<polyline fill="none" stroke="#404040" stroke-width="6" stroke-dasharray="none" points="4800,6950 4800,7011"/>
		<polygon fill="#404040" stroke="none" points="4800,7025 4813,7000 4786,7000"/>
		<g>
			<path fill="#F0D0FF" stroke="#9070A0" stroke-width="3" stroke-dasharray="none" d="M 4450,100 A 75,75 0 0,0 4450,250 L 5150,250 A 75,75 0 0,0 5150,100 Z"/>
			<text x="4800" y="115" fill="#000000" font-family="Arial" font-size="32pt" text-anchor="middle" direction="ltr">
				<tspan x="4800" dy="50" unicode-bidi="embed">calculateBestMove</tspan>
				<tspan x="4800" dy="50" unicode-bidi="embed">(String Tablica board, String player)</tspan>
			</text>
		</g>
		<g>
			<path fill="#F0D0FF" stroke="#9070A0" stroke-width="3" stroke-dasharray="none" d="M 4600,7025 A 50,50 0 0,0 4600,7125 L 5000,7125 A 50,50 0 0,0 5000,7025 Z"/>
			<text x="4800" y="7040" fill="#000000" font-family="Arial" font-size="32pt" text-anchor="middle" direction="ltr">
				<tspan x="4800" dy="50" unicode-bidi="embed">Zwraca String point</tspan>
			</text>
		</g>
		<g>
			<polyline fill="none" stroke="#404040" stroke-width="6" stroke-dasharray="none" points="4800,450 4800,511"/>
			<polygon fill="#404040" stroke="none" points="4800,525 4813,500 4786,500"/>
			<polyline fill="none" stroke="#404040" stroke-width="6" stroke-dasharray="none" points="4800,1100 4800,1161"/>
			<polygon fill="#404040" stroke="none" points="4800,1175 4813,1150 4786,1150"/>
			<polyline fill="none" stroke="#404040" stroke-width="6" stroke-dasharray="none" points="4800,1300 4800,1361"/>
			<polygon fill="#404040" stroke="none" points="4800,1375 4813,1350 4786,1350"/>
			<polyline fill="none" stroke="#404040" stroke-width="6" stroke-dasharray="none" points="4800,1500 4800,1625"/>
			<polyline fill="none" stroke="#404040" stroke-width="6" stroke-dasharray="none" points="4800,1625 4800,1736"/>
			<polygon fill="#404040" stroke="none" points="4800,1750 4813,1725 4786,1725"/>
			<polyline fill="none" stroke="#404040" stroke-width="6" stroke-dasharray="none" points="4800,1850 4800,1911"/>
			<polygon fill="#404040" stroke="none" points="4800,1925 4813,1900 4786,1900"/>
			<g>
				<path fill="#FFFFD0" stroke="#A0A070" stroke-width="3" stroke-dasharray="none" d="M 4600,325 L 4600,450 L 5000,450 L 5000,325 Z"/>
				<polyline fill="none" stroke="#A0A070" stroke-width="3" stroke-dasharray="none" points="4600,350 5000,350"/>
				<polyline fill="none" stroke="#A0A070" stroke-width="3" stroke-dasharray="none" points="4625,325 4625,450"/>
				<text x="4812" y="365" fill="#000000" font-family="Arial" font-size="32pt" text-anchor="middle" direction="ltr">
					<tspan x="4812" dy="50" unicode-bidi="embed">String Opponent</tspan>
				</text>
			</g>
			<g>
				<polyline fill="none" stroke="#404040" stroke-width="6" stroke-dasharray="none" points="5050,675 5250,675 5250,861"/>
				<polygon fill="#404040" stroke="none" points="5250,875 5263,850 5236,850"/>
				<polyline fill="none" stroke="#404040" stroke-width="6" stroke-dasharray="none" points="5250,975 5250,1075 4838,1075"/>
				<polygon fill="#404040" stroke="none" points="4825,1075 4849,1088 4849,1061"/>
				<polyline fill="none" stroke="#404040" stroke-width="6" stroke-dasharray="none" points="4550,675 4375,675 4375,861"/>
				<polygon fill="#404040" stroke="none" points="4375,875 4388,850 4361,850"/>
				<polyline fill="none" stroke="#404040" stroke-width="6" stroke-dasharray="none" points="4375,975 4375,1075 4761,1075"/>
				<polygon fill="#404040" stroke="none" points="4775,1075 4750,1061 4750,1088"/>
				<g>
					<path fill="#FFD0D0" stroke="#A07070" stroke-width="3" stroke-dasharray="none" d="M 4800,525 L 4525,675 L 4800,825 L 5075,675 Z"/>
					<text x="4800" y="640" fill="#000000" font-family="Arial" font-size="32pt" text-anchor="middle" direction="ltr">
						<tspan x="4800" dy="50" unicode-bidi="embed">player == PLAYER1</tspan>
					</text>
				</g>
				<g>
					<path fill="#FFFFD0" stroke="#A0A070" stroke-width="3" stroke-dasharray="none" d="M 5000,875 L 5000,975 L 5500,975 L 5500,875 Z"/>
					<text x="5250" y="890" fill="#000000" font-family="Arial" font-size="32pt" text-anchor="middle" direction="ltr">
						<tspan x="5250" dy="50" unicode-bidi="embed">Opponent = PLAYER2</tspan>
					</text>
				</g>
				<g>
					<path fill="#FFFFD0" stroke="#A0A070" stroke-width="3" stroke-dasharray="none" d="M 4125,875 L 4125,975 L 4625,975 L 4625,875 Z"/>
					<text x="4375" y="890" fill="#000000" font-family="Arial" font-size="32pt" text-anchor="middle" direction="ltr">
						<tspan x="4375" dy="50" unicode-bidi="embed">Opponent = PLAYER1</tspan>
					</text>
				</g>
				<ellipse cx="4800" cy="1075" rx="25" ry="25" fill="#FFD0D0" stroke="#A07070" stroke-width="3"/>
				<text x="5175" y="590" fill="#000000" font-family="Arial" font-size="32pt" text-anchor="middle" direction="ltr">
					<tspan x="5175" dy="50" unicode-bidi="embed">Prawda</tspan>
				</text>
				<text x="4437" y="590" fill="#000000" font-family="Arial" font-size="32pt" text-anchor="middle" direction="ltr">
					<tspan x="4437" dy="50" unicode-bidi="embed">Fa&#322;sz</tspan>
				</text>
			</g>
			<g>
				<path fill="#FFFFD0" stroke="#A0A070" stroke-width="3" stroke-dasharray="none" d="M 4650,1175 L 4650,1300 L 4950,1300 L 4950,1175 Z"/>
				<polyline fill="none" stroke="#A0A070" stroke-width="3" stroke-dasharray="none" points="4650,1200 4950,1200"/>
				<polyline fill="none" stroke="#A0A070" stroke-width="3" stroke-dasharray="none" points="4675,1175 4675,1300"/>
				<text x="4812" y="1215" fill="#000000" font-family="Arial" font-size="32pt" text-anchor="middle" direction="ltr">
					<tspan x="4812" dy="50" unicode-bidi="embed">String point</tspan>
				</text>
			</g>
			<g>
				<path fill="#FFFFD0" stroke="#A0A070" stroke-width="3" stroke-dasharray="none" d="M 4650,1375 L 4650,1500 L 4950,1500 L 4950,1375 Z"/>
				<polyline fill="none" stroke="#A0A070" stroke-width="3" stroke-dasharray="none" points="4650,1400 4950,1400"/>
				<polyline fill="none" stroke="#A0A070" stroke-width="3" stroke-dasharray="none" points="4675,1375 4675,1500"/>
				<text x="4812" y="1415" fill="#000000" font-family="Arial" font-size="32pt" text-anchor="middle" direction="ltr">
					<tspan x="4812" dy="50" unicode-bidi="embed">Integer bM</tspan>
				</text>
			</g>
			<g>
				<polyline fill="none" stroke="#404040" stroke-width="6" stroke-dasharray="6,12" points="4800,1625 4925,1625"/>
				<g>
					<path fill="#FFFFFF" stroke="#606060" stroke-width="3" stroke-dasharray="6,6" d="M 4925,1575 L 4925,1675 L 5575,1675 L 5575,1575 Z"/>
					<text x="5250" y="1590" fill="#606060" font-family="Arial" font-size="32pt" text-anchor="middle" direction="ltr">
						<tspan x="5250" dy="50" unicode-bidi="embed">Szukamy ruchu wygrywaj&#261;cego</tspan>
					</text>
				</g>
			</g>
			<g>
				<path fill="#FFFFD0" stroke="#A0A070" stroke-width="3" stroke-dasharray="none" d="M 4500,1750 L 4500,1850 L 5100,1850 L 5100,1750 Z"/>
				<text x="4800" y="1765" fill="#000000" font-family="Arial" font-size="32pt" text-anchor="middle" direction="ltr">
					<tspan x="4800" dy="50" unicode-bidi="embed">bM = findWin(board, player)</tspan>
				</text>
			</g>
			<g>
				<polyline fill="none" stroke="#404040" stroke-width="6" stroke-dasharray="none" points="5175,2125 5375,2125 5375,6925 4838,6925"/>
				<polygon fill="#404040" stroke="none" points="4825,6925 4849,6938 4849,6911"/>
				<polyline fill="none" stroke="#404040" stroke-width="6" stroke-dasharray="none" points="4425,2125 4025,2125 4025,2425"/>
				<polyline fill="none" stroke="#404040" stroke-width="6" stroke-dasharray="none" points="4025,6825 4025,6925 4761,6925"/>
				<polygon fill="#404040" stroke="none" points="4775,6925 4750,6911 4750,6938"/>
				<g>
					<path fill="#FFD0D0" stroke="#A07070" stroke-width="3" stroke-dasharray="none" d="M 4800,1925 L 4400,2125 L 4800,2325 L 5200,2125 Z"/>
					<text x="4800" y="2065" fill="#000000" font-family="Arial" font-size="32pt" text-anchor="middle" direction="ltr">
						<tspan x="4800" dy="50" unicode-bidi="embed">bM != NULL &amp;&amp; bM &amp;&amp; bM &lt;</tspan>
						<tspan x="4800" dy="50" unicode-bidi="embed"> BoardSize &amp;&amp; bM &gt;= 0</tspan>
					</text>
				</g>
				<g>
				</g>
				<g>
					<polyline fill="none" stroke="#404040" stroke-width="6" stroke-dasharray="none" points="4025,2425 4025,2536"/>
					<polygon fill="#404040" stroke="none" points="4025,2550 4038,2525 4011,2525"/>
					<polyline fill="none" stroke="#404040" stroke-width="6" stroke-dasharray="none" points="4025,2700 4025,2761"/>
					<polygon fill="#404040" stroke="none" points="4025,2775 4038,2750 4011,2750"/>
					<g>
						<polyline fill="none" stroke="#404040" stroke-width="6" stroke-dasharray="6,12" points="4025,2425 4150,2425"/>
						<g>
							<path fill="#FFFFFF" stroke="#606060" stroke-width="3" stroke-dasharray="6,6" d="M 4150,2375 L 4150,2475 L 4750,2475 L 4750,2375 Z"/>
							<text x="4450" y="2390" fill="#606060" font-family="Arial" font-size="32pt" text-anchor="middle" direction="ltr">
								<tspan x="4450" dy="50" unicode-bidi="embed">Szukamy ruchu blokuj&#261;cego</tspan>
							</text>
						</g>
					</g>
					<g>
						<path fill="#FFFFD0" stroke="#A0A070" stroke-width="3" stroke-dasharray="none" d="M 3800,2550 L 3800,2700 L 4250,2700 L 4250,2550 Z"/>
						<text x="4025" y="2565" fill="#000000" font-family="Arial" font-size="32pt" text-anchor="middle" direction="ltr">
							<tspan x="4025" dy="50" unicode-bidi="embed">bM = findWin(board,</tspan>
							<tspan x="4025" dy="50" unicode-bidi="embed"> Opponent)</tspan>
						</text>
					</g>
					<g>
						<polyline fill="none" stroke="#404040" stroke-width="6" stroke-dasharray="none" points="4400,2975 4600,2975 4600,6800 4063,6800"/>
						<polygon fill="#404040" stroke="none" points="4050,6800 4074,6813 4074,6786"/>
						<polyline fill="none" stroke="#404040" stroke-width="6" stroke-dasharray="none" points="3650,2975 3300,2975 3300,3275"/>
						<polyline fill="none" stroke="#404040" stroke-width="6" stroke-dasharray="none" points="3300,6700 3300,6800 3986,6800"/>
						<polygon fill="#404040" stroke="none" points="4000,6800 3975,6786 3975,6813"/>
						<g>
							<path fill="#FFD0D0" stroke="#A07070" stroke-width="3" stroke-dasharray="none" d="M 4025,2775 L 3625,2975 L 4025,3175 L 4425,2975 Z"/>
							<text x="4025" y="2915" fill="#000000" font-family="Arial" font-size="32pt" text-anchor="middle" direction="ltr">
								<tspan x="4025" dy="50" unicode-bidi="embed">bM != NULL &amp;&amp; bM &amp;&amp; bM &lt;</tspan>
								<tspan x="4025" dy="50" unicode-bidi="embed"> BoardSize &amp;&amp; bM &gt;= 0</tspan>
							</text>
						</g>
						<g>
						</g>
						<g>
							<polyline fill="none" stroke="#404040" stroke-width="6" stroke-dasharray="none" points="3300,3275 3300,3386"/>
							<polygon fill="#404040" stroke="none" points="3300,3400 3313,3375 3286,3375"/>
							<polyline fill="none" stroke="#404040" stroke-width="6" stroke-dasharray="none" points="3300,3500 3300,3561"/>
							<polygon fill="#404040" stroke="none" points="3300,3575 3313,3550 3286,3550"/>
							<g>
								<polyline fill="none" stroke="#404040" stroke-width="6" stroke-dasharray="6,12" points="3300,3275 3425,3275"/>
								<g>
									<path fill="#FFFFFF" stroke="#606060" stroke-width="3" stroke-dasharray="6,6" d="M 3425,3225 L 3425,3325 L 3975,3325 L 3975,3225 Z"/>
									<text x="3700" y="3240" fill="#606060" font-family="Arial" font-size="32pt" text-anchor="middle" direction="ltr">
										<tspan x="3700" dy="50" unicode-bidi="embed">Szukanie dobrego ruchu</tspan>
									</text>
								</g>
							</g>
							<g>
								<path fill="#FFFFD0" stroke="#A0A070" stroke-width="3" stroke-dasharray="none" d="M 3000,3400 L 3000,3500 L 3600,3500 L 3600,3400 Z"/>
								<text x="3300" y="3415" fill="#000000" font-family="Arial" font-size="32pt" text-anchor="middle" direction="ltr">
									<tspan x="3300" dy="50" unicode-bidi="embed">bM = findMov(board, player)</tspan>
								</text>
							</g>
							<g>
								<polyline fill="none" stroke="#404040" stroke-width="6" stroke-dasharray="none" points="3675,3775 3875,3775 3875,6675 3338,6675"/>
								<polygon fill="#404040" stroke="none" points="3325,6675 3349,6688 3349,6661"/>
								<polyline fill="none" stroke="#404040" stroke-width="6" stroke-dasharray="none" points="2925,3775 2425,3775 2425,4100"/>
								<polyline fill="none" stroke="#404040" stroke-width="6" stroke-dasharray="none" points="2425,6575 2425,6675 3261,6675"/>
								<polygon fill="#404040" stroke="none" points="3275,6675 3250,6661 3250,6688"/>
								<g>
									<path fill="#FFD0D0" stroke="#A07070" stroke-width="3" stroke-dasharray="none" d="M 3300,3575 L 2900,3775 L 3300,3975 L 3700,3775 Z"/>
									<text x="3300" y="3715" fill="#000000" font-family="Arial" font-size="32pt" text-anchor="middle" direction="ltr">
										<tspan x="3300" dy="50" unicode-bidi="embed">bM != NULL &amp;&amp; bM &amp;&amp; bM &lt;</tspan>
										<tspan x="3300" dy="50" unicode-bidi="embed"> BoardSize &amp;&amp; bM &gt;= 0</tspan>
									</text>
								</g>
								<g>
								</g>
								<g>
									<polyline fill="none" stroke="#404040" stroke-width="6" stroke-dasharray="none" points="2425,4100 2425,4236"/>
									<polygon fill="#404040" stroke="none" points="2425,4250 2438,4225 2411,4225"/>
									<polyline fill="none" stroke="#404040" stroke-width="6" stroke-dasharray="none" points="2425,4400 2425,4461"/>
									<polygon fill="#404040" stroke="none" points="2425,4475 2438,4450 2411,4450"/>
									<g>
										<polyline fill="none" stroke="#404040" stroke-width="6" stroke-dasharray="6,12" points="2425,4100 2550,4100"/>
										<g>
											<path fill="#FFFFFF" stroke="#606060" stroke-width="3" stroke-dasharray="6,6" d="M 2550,4025 L 2550,4175 L 3250,4175 L 3250,4025 Z"/>
											<text x="2900" y="4040" fill="#606060" font-family="Arial" font-size="32pt" text-anchor="middle" direction="ltr">
												<tspan x="2900" dy="50" unicode-bidi="embed">Szukanie ruchu negatywnego dla</tspan>
												<tspan x="2900" dy="50" unicode-bidi="embed"> przeciwnika</tspan>
											</text>
										</g>
									</g>
									<g>
										<path fill="#FFFFD0" stroke="#A0A070" stroke-width="3" stroke-dasharray="none" d="M 2200,4250 L 2200,4400 L 2650,4400 L 2650,4250 Z"/>
										<text x="2425" y="4265" fill="#000000" font-family="Arial" font-size="32pt" text-anchor="middle" direction="ltr">
											<tspan x="2425" dy="50" unicode-bidi="embed">bM = findMov(board,</tspan>
											<tspan x="2425" dy="50" unicode-bidi="embed"> Opponent)</tspan>
										</text>
									</g>
									<g>
										<polyline fill="none" stroke="#404040" stroke-width="6" stroke-dasharray="none" points="2800,4675 3000,4675 3000,6550 2463,6550"/>
										<polygon fill="#404040" stroke="none" points="2450,6550 2474,6563 2474,6536"/>
										<polyline fill="none" stroke="#404040" stroke-width="6" stroke-dasharray="none" points="2050,4675 375,4675 375,4975"/>
										<polyline fill="none" stroke="#404040" stroke-width="6" stroke-dasharray="none" points="375,5225 375,6550 2386,6550"/>
										<polygon fill="#404040" stroke="none" points="2400,6550 2375,6536 2375,6563"/>
										<g>
											<path fill="#FFD0D0" stroke="#A07070" stroke-width="3" stroke-dasharray="none" d="M 2425,4475 L 2025,4675 L 2425,4875 L 2825,4675 Z"/>
											<text x="2425" y="4615" fill="#000000" font-family="Arial" font-size="32pt" text-anchor="middle" direction="ltr">
												<tspan x="2425" dy="50" unicode-bidi="embed">bM != NULL &amp;&amp; bM &amp;&amp; bM &lt;</tspan>
												<tspan x="2425" dy="50" unicode-bidi="embed"> BoardSize &amp;&amp; bM &gt;= 0</tspan>
											</text>
										</g>
										<g>
										</g>
										<g>
											<polyline fill="none" stroke="#404040" stroke-width="6" stroke-dasharray="none" points="375,4975 375,5111"/>
											<polygon fill="#404040" stroke="none" points="375,5125 388,5100 361,5100"/>
											<g>
												<polyline fill="none" stroke="#404040" stroke-width="6" stroke-dasharray="6,12" points="375,4975 500,4975"/>
												<g>
													<path fill="#FFFFFF" stroke="#606060" stroke-width="3" stroke-dasharray="6,6" d="M 500,4925 L 500,5025 L 1100,5025 L 1100,4925 Z"/>
													<text x="800" y="4940" fill="#606060" font-family="Arial" font-size="32pt" text-anchor="middle" direction="ltr">
														<tspan x="800" dy="50" unicode-bidi="embed">Szukanie dowolnego ruchu</tspan>
													</text>
												</g>
											</g>
											<g>
												<polyline fill="none" stroke="#404040" stroke-width="6" stroke-dasharray="none" points="650,5175 875,5175 875,5286"/>
												<polygon fill="#404040" stroke="none" points="875,5300 888,5275 861,5275"/>
												<polyline fill="none" stroke="#404040" stroke-width="6" stroke-dasharray="none" points="875,5400 875,6450 425,6450 425,5238"/>
												<polygon fill="#404040" stroke="none" points="425,5225 411,5249 438,5249"/>
												<g>
													<polyline fill="none" stroke="#404040" stroke-width="6" stroke-dasharray="none" points="1150,5350 1575,5350 1575,5436"/>
													<polygon fill="#404040" stroke="none" points="1575,5450 1588,5425 1561,5425"/>
													<polyline fill="none" stroke="#404040" stroke-width="6" stroke-dasharray="none" points="1575,6300 1575,6375 925,6375 925,5413"/>
													<polygon fill="#404040" stroke="none" points="925,5400 911,5424 938,5424"/>
													<g>
														<polyline fill="none" stroke="#404040" stroke-width="6" stroke-dasharray="none" points="1950,5650 2150,5650 2150,5886"/>
														<polygon fill="#404040" stroke="none" points="2150,5900 2163,5875 2136,5875"/>
														<polyline fill="none" stroke="#404040" stroke-width="6" stroke-dasharray="none" points="2150,6175 2150,6275 1613,6275"/>
														<polygon fill="#404040" stroke="none" points="1600,6275 1624,6288 1624,6261"/>
														<polyline fill="none" stroke="#404040" stroke-width="6" stroke-dasharray="none" points="1200,5650 1025,5650 1025,6275 1536,6275"/>
														<polygon fill="#404040" stroke="none" points="1550,6275 1525,6261 1525,6288"/>
														<g>
															<path fill="#FFD0D0" stroke="#A07070" stroke-width="3" stroke-dasharray="none" d="M 1575,5450 L 1175,5650 L 1575,5850 L 1975,5650 Z"/>
															<text x="1575" y="5590" fill="#000000" font-family="Arial" font-size="32pt" text-anchor="middle" direction="ltr">
																<tspan x="1575" dy="50" unicode-bidi="embed">board[i * BoardSize + j] ==</tspan>
																<tspan x="1575" dy="50" unicode-bidi="embed"> EMPTY</tspan>
															</text>
														</g>
														<g>
															<polyline fill="none" stroke="#404040" stroke-width="6" stroke-dasharray="none" points="2150,6000 2150,6061"/>
															<polygon fill="#404040" stroke="none" points="2150,6075 2163,6050 2136,6050"/>
															<g>
																<path fill="#C04040" stroke="#602020" stroke-width="3" stroke-dasharray="none" d="M 1925,5900 L 1925,6000 L 2375,6000 L 2375,5900 Z"/>
																<text x="2150" y="5915" fill="#FFFFFF" font-family="Arial" font-size="32pt" text-anchor="middle" direction="ltr">
																	<tspan x="2150" dy="50" unicode-bidi="embed">point = new point(j, i)</tspan>
																</text>
															</g>
															<g>
																<path fill="#F0D0FF" stroke="#9070A0" stroke-width="3" stroke-dasharray="none" d="M 2000,6075 L 2000,6175 L 2300,6175 L 2300,6075 Z"/>
																<polyline fill="none" stroke="#9070A0" stroke-width="3" stroke-dasharray="none" points="2025,6075 2025,6175"/>
																<polyline fill="none" stroke="#9070A0" stroke-width="3" stroke-dasharray="none" points="2275,6075 2275,6175"/>
																<text x="2150" y="6090" fill="#000000" font-family="Arial" font-size="32pt" text-anchor="middle" direction="ltr">
																	<tspan x="2150" dy="50" unicode-bidi="embed">break</tspan>
																</text>
															</g>
														</g>
														<g>
														</g>
														<ellipse cx="1575" cy="6275" rx="25" ry="25" fill="#FFD0D0" stroke="#A07070" stroke-width="3"/>
														<text x="2075" y="5565" fill="#000000" font-family="Arial" font-size="32pt" text-anchor="middle" direction="ltr">
															<tspan x="2075" dy="50" unicode-bidi="embed">Prawda</tspan>
														</text>
														<text x="1087" y="5565" fill="#000000" font-family="Arial" font-size="32pt" text-anchor="middle" direction="ltr">
															<tspan x="1087" dy="50" unicode-bidi="embed">Fa&#322;sz</tspan>
														</text>
													</g>
													<g>
														<path fill="#FFE0A0" stroke="#A08040" stroke-width="3" stroke-dasharray="none" d="M 650,5300 L 600,5350 L 650,5400 L 1100,5400 L 1150,5350 L 1100,5300 Z"/>
														<text x="875" y="5315" fill="#000000" font-family="Arial" font-size="32pt" text-anchor="middle" direction="ltr">
															<tspan x="875" dy="50" unicode-bidi="embed">j = 0 do BoardSize</tspan>
														</text>
													</g>
													<text x="1275" y="5265" fill="#000000" font-family="Arial" font-size="32pt" text-anchor="middle" direction="ltr">
														<tspan x="1275" dy="50" unicode-bidi="embed">Nast&#281;pny</tspan>
													</text>
													<text x="737" y="5415" fill="#000000" font-family="Arial" font-size="32pt" text-anchor="middle" direction="ltr">
														<tspan x="737" dy="50" unicode-bidi="embed">Wykonano</tspan>
													</text>
												</g>
												<g>
													<path fill="#FFE0A0" stroke="#A08040" stroke-width="3" stroke-dasharray="none" d="M 150,5125 L 100,5175 L 150,5225 L 600,5225 L 650,5175 L 600,5125 Z"/>
													<text x="375" y="5140" fill="#000000" font-family="Arial" font-size="32pt" text-anchor="middle" direction="ltr">
														<tspan x="375" dy="50" unicode-bidi="embed">i = 0 do BoardSize</tspan>
													</text>
												</g>
												<text x="775" y="5090" fill="#000000" font-family="Arial" font-size="32pt" text-anchor="middle" direction="ltr">
													<tspan x="775" dy="50" unicode-bidi="embed">Nast&#281;pny</tspan>
												</text>
												<text x="237" y="5240" fill="#000000" font-family="Arial" font-size="32pt" text-anchor="middle" direction="ltr">
													<tspan x="237" dy="50" unicode-bidi="embed">Wykonano</tspan>
												</text>
											</g>
										</g>
										<ellipse cx="2425" cy="6550" rx="25" ry="25" fill="#FFD0D0" stroke="#A07070" stroke-width="3"/>
										<text x="2925" y="4590" fill="#000000" font-family="Arial" font-size="32pt" text-anchor="middle" direction="ltr">
											<tspan x="2925" dy="50" unicode-bidi="embed">Prawda</tspan>
										</text>
										<text x="1937" y="4590" fill="#000000" font-family="Arial" font-size="32pt" text-anchor="middle" direction="ltr">
											<tspan x="1937" dy="50" unicode-bidi="embed">Fa&#322;sz</tspan>
										</text>
									</g>
								</g>
								<ellipse cx="3300" cy="6675" rx="25" ry="25" fill="#FFD0D0" stroke="#A07070" stroke-width="3"/>
								<text x="3800" y="3690" fill="#000000" font-family="Arial" font-size="32pt" text-anchor="middle" direction="ltr">
									<tspan x="3800" dy="50" unicode-bidi="embed">Prawda</tspan>
								</text>
								<text x="2812" y="3690" fill="#000000" font-family="Arial" font-size="32pt" text-anchor="middle" direction="ltr">
									<tspan x="2812" dy="50" unicode-bidi="embed">Fa&#322;sz</tspan>
								</text>
							</g>
						</g>
						<ellipse cx="4025" cy="6800" rx="25" ry="25" fill="#FFD0D0" stroke="#A07070" stroke-width="3"/>
						<text x="4525" y="2890" fill="#000000" font-family="Arial" font-size="32pt" text-anchor="middle" direction="ltr">
							<tspan x="4525" dy="50" unicode-bidi="embed">Prawda</tspan>
						</text>
						<text x="3537" y="2890" fill="#000000" font-family="Arial" font-size="32pt" text-anchor="middle" direction="ltr">
							<tspan x="3537" dy="50" unicode-bidi="embed">Fa&#322;sz</tspan>
						</text>
					</g>
				</g>
				<ellipse cx="4800" cy="6925" rx="25" ry="25" fill="#FFD0D0" stroke="#A07070" stroke-width="3"/>
				<text x="5300" y="2040" fill="#000000" font-family="Arial" font-size="32pt" text-anchor="middle" direction="ltr">
					<tspan x="5300" dy="50" unicode-bidi="embed">Prawda</tspan>
				</text>
				<text x="4312" y="2040" fill="#000000" font-family="Arial" font-size="32pt" text-anchor="middle" direction="ltr">
					<tspan x="4312" dy="50" unicode-bidi="embed">Fa&#322;sz</tspan>
				</text>
			</g>
		</g>
	</g>
</svg>
